<svg width="70" height="71" viewBox="0 0 70 71" fill="none" xmlns="http://www.w3.org/2000/svg">
<rect y="0.932129" width="70" height="70" rx="10" fill="#0483FD"/>
<path d="M35 42.1821C38.4518 42.1821 41.25 39.3839 41.25 35.9321C41.25 32.4803 38.4518 29.6821 35 29.6821C31.5482 29.6821 28.75 32.4803 28.75 35.9321C28.75 39.3839 31.5482 42.1821 35 42.1821Z" stroke="white" stroke-width="4" stroke-miterlimit="10" stroke-linecap="round" stroke-linejoin="round"/>
<path d="M14.1667 37.7654V34.0987C14.1667 31.9321 15.9376 30.1404 18.1251 30.1404C21.8959 30.1404 23.4376 27.4737 21.5417 24.2029C20.4584 22.3279 21.1042 19.8904 23.0001 18.8071L26.6042 16.7446C28.2501 15.7654 30.3751 16.3487 31.3542 17.9946L31.5834 18.3904C33.4584 21.6612 36.5417 21.6612 38.4376 18.3904L38.6667 17.9946C39.6459 16.3487 41.7709 15.7654 43.4167 16.7446L47.0209 18.8071C48.9167 19.8904 49.5626 22.3279 48.4792 24.2029C46.5834 27.4737 48.1251 30.1404 51.8959 30.1404C54.0626 30.1404 55.8542 31.9112 55.8542 34.0987V37.7654C55.8542 39.9321 54.0834 41.7237 51.8959 41.7237C48.1251 41.7237 46.5834 44.3904 48.4792 47.6612C49.5626 49.5571 48.9167 51.9737 47.0209 53.0571L43.4167 55.1196C41.7709 56.0987 39.6459 55.5154 38.6667 53.8696L38.4376 53.4737C36.5626 50.2029 33.4792 50.2029 31.5834 53.4737L31.3542 53.8696C30.3751 55.5154 28.2501 56.0987 26.6042 55.1196L23.0001 53.0571C21.1042 51.9737 20.4584 49.5362 21.5417 47.6612C23.4376 44.3904 21.8959 41.7237 18.1251 41.7237C15.9376 41.7237 14.1667 39.9321 14.1667 37.7654Z" stroke="white" stroke-width="4" stroke-miterlimit="10" stroke-linecap="round" stroke-linejoin="round"/>
</svg>
