<svg width="70" height="71" viewBox="0 0 70 71" fill="none" xmlns="http://www.w3.org/2000/svg">
<rect y="0.932129" width="70" height="70" rx="10" fill="#0483FD"/>
<path d="M53.75 44.2619V31.7619C53.75 25.8693 53.75 22.923 51.9194 21.0925C50.3186 19.4917 47.8646 19.2907 43.3333 19.2655H26.6667C22.1354 19.2907 19.6814 19.4917 18.0806 21.0925C16.25 22.923 16.25 25.8693 16.25 31.7619V44.2619C16.25 50.1544 16.25 53.1007 18.0806 54.9313C19.9112 56.7619 22.8574 56.7619 28.75 56.7619H41.25C47.1426 56.7619 50.0888 56.7619 51.9194 54.9313C53.75 53.1007 53.75 50.1544 53.75 44.2619Z" stroke="white" stroke-width="4"/>
<path d="M26.6667 18.2238C26.6667 16.4979 28.0659 15.0988 29.7917 15.0988H40.2084C41.9343 15.0988 43.3334 16.4979 43.3334 18.2238V20.3071C43.3334 22.033 41.9343 23.4321 40.2084 23.4321H29.7917C28.0659 23.4321 26.6667 22.033 26.6667 20.3071V18.2238Z" fill="white"/>
<path fill-rule="evenodd" clip-rule="evenodd" d="M42.3923 32.7826C42.9811 33.4135 42.947 34.4022 42.3161 34.991L33.3876 43.3244C32.7872 43.8847 31.8556 43.8847 31.2553 43.3244L27.6839 39.991C27.053 39.4022 27.0189 38.4135 27.6077 37.7826C28.1965 37.1518 29.1853 37.1177 29.8161 37.7065L32.3214 40.0448L40.1839 32.7065C40.8147 32.1177 41.8035 32.1518 42.3923 32.7826Z" fill="white"/>
</svg>
