<svg width="173" height="38" viewBox="0 0 173 38" fill="none" xmlns="http://www.w3.org/2000/svg">
<path d="M17.4618 26.8764C17.4618 30.2597 14.6267 33.0164 11.1472 33.0164C7.66774 33.0164 4.83261 30.2597 4.83261 26.8764V9.2084L0 8.64453V26.8764C0 32.8911 5.02591 37.7153 11.1472 37.7153C17.2685 37.7153 22.2944 32.8284 22.2944 26.8764V8.64453L17.4618 9.2084V26.8764Z" fill="#0098DA"/>
<path d="M12.5021 13.4077H6.70292C6.31631 13.4077 5.99414 13.0944 5.99414 12.7185V7.0798C5.99414 6.70389 6.31631 6.39062 6.70292 6.39062H12.5021C12.8887 6.39062 13.2108 6.70389 13.2108 7.0798V12.7185C13.2108 13.0944 12.8887 13.4077 12.5021 13.4077Z" fill="#3E4095"/>
<path d="M15.9186 17.1653H11.8592C11.4726 17.1653 11.1504 16.852 11.1504 16.4761V12.529C11.1504 12.1531 11.4726 11.8398 11.8592 11.8398H15.9186C16.3052 11.8398 16.6273 12.1531 16.6273 12.529V16.4761C16.6273 16.9147 16.3052 17.1653 15.9186 17.1653Z" fill="#3E4095"/>
<path d="M15.3974 7.32858H12.4978C12.1112 7.32858 11.7891 7.01532 11.7891 6.6394V3.82004C11.7891 3.44412 12.1112 3.13086 12.4978 3.13086H15.3974C15.784 3.13086 16.1062 3.44412 16.1062 3.82004V6.6394C16.0418 7.01532 15.784 7.32858 15.3974 7.32858Z" fill="#3E4095"/>
<path d="M10.5678 2.63141H9.21464C8.82803 2.63141 8.50586 2.31815 8.50586 1.94223V0.689178C8.50586 0.313263 8.82803 0 9.21464 0H10.5678C10.9544 0 11.2766 0.313263 11.2766 0.689178V2.00488C11.2766 2.3808 10.9544 2.63141 10.5678 2.63141Z" fill="#3E4095"/>
<path d="M15.7259 31.0645H6.51172V31.1898H15.7259V31.0645Z" fill="#ECF9FF"/>
<path d="M15.7259 30.8789H6.51172V31.0042H15.7259V30.8789Z" fill="#EBF9FF"/>
<path d="M15.7259 30.7559H6.51172V30.8812H15.7259V30.7559Z" fill="#EFF8FF"/>
<path d="M15.7259 30.6289H6.51172V30.7542H15.7259V30.6289Z" fill="#E9F8FF"/>
<path d="M15.7259 30.4395H6.51172V30.5648H15.7259V30.4395Z" fill="#E8F8FF"/>
<path d="M15.7259 30.3145H6.51172V30.4398H15.7259V30.3145Z" fill="#E7F7FF"/>
<path d="M15.7259 30.1914H6.51172V30.3167H15.7259V30.1914Z" fill="#E6F7FF"/>
<path d="M15.7259 30.0664H6.51172V30.1917H15.7259V30.0664Z" fill="#E5F7FF"/>
<path d="M15.7259 29.877H6.51172V30.0023H15.7259V29.877Z" fill="#E4F6FE"/>
<path d="M15.7259 29.748H6.51172V29.8734H15.7259V29.748Z" fill="#E3F6FE"/>
<path d="M15.7259 29.6309H6.51172V29.7562H15.7259V29.6309Z" fill="#E2F5FE"/>
<path d="M15.7259 29.4414H6.51172V29.5667H15.7259V29.4414Z" fill="#E1F5FE"/>
<path d="M15.7259 29.3125H6.51172V29.4378H15.7259V29.3125Z" fill="#E0F5FE"/>
<path d="M15.7259 29.1855H6.51172V29.3109H15.7259V29.1855Z" fill="#DFF4FE"/>
<path d="M15.7259 29.002H6.51172V29.1273H15.7259V29.002Z" fill="#DEF4FE"/>
<path d="M15.7259 28.875H6.51172V29.0003H15.7259V28.875Z" fill="#DDF4FE"/>
<path d="M15.7259 28.748H6.51172V28.8733H15.7259V28.748Z" fill="#DCF3FE"/>
<path d="M15.7259 28.5605H6.51172V28.6859H15.7259V28.5605Z" fill="#DBF3FE"/>
<path d="M15.7259 28.4395H6.51172V28.5648H15.7259V28.4395Z" fill="#DAF3FE"/>
<path d="M15.7259 28.3125H6.51172V28.4378H15.7259V28.3125Z" fill="#D9F2FE"/>
<path d="M15.7259 28.1875H6.51172V28.3128H15.7259V28.1875Z" fill="#D8F2FE"/>
<path d="M15.7259 27.9941H6.51172V28.1194H15.7259V27.9941Z" fill="#D7F2FE"/>
<path d="M15.7259 27.8672H6.51172V27.9925H15.7259V27.8672Z" fill="#D6F1FE"/>
<path d="M15.7259 27.75H6.51172V27.8753H15.7259V27.75Z" fill="#D5F1FE"/>
<path d="M15.7259 27.5586H6.51172V27.6839H15.7259V27.5586Z" fill="#D4F1FD"/>
<path d="M15.7259 27.4316H6.51172V27.5569H15.7259V27.4316Z" fill="#D3F0FD"/>
<path d="M15.7259 27.3066H6.51172V27.4319H15.7259V27.3066Z" fill="#D2F0FD"/>
<path d="M15.7259 27.1211H6.51172V27.2464H15.7259V27.1211Z" fill="#D1F0FD"/>
<path d="M15.7259 26.9961H6.51172V27.1214H15.7259V26.9961Z" fill="#D0EFFD"/>
<path d="M15.7259 26.8691H6.51172V26.9944H15.7259V26.8691Z" fill="#CFEFFD"/>
<path d="M15.7259 26.6816H6.51172V26.8069H15.7259V26.6816Z" fill="#CEEEFD"/>
<path d="M15.7259 26.5508H6.51172V26.6761H15.7259V26.5508Z" fill="#CDEEFD"/>
<path d="M15.7259 26.4355H6.51172V26.5609H15.7259V26.4355Z" fill="#CCEEFD"/>
<path d="M15.7259 26.3066H6.51172V26.4319H15.7259V26.3066Z" fill="#CBEDFD"/>
<path d="M15.7259 26.1211H6.51172V26.2464H15.7259V26.1211Z" fill="#CAEDFD"/>
<path d="M15.7259 25.9922H6.51172V26.1175H15.7259V25.9922Z" fill="#C9EDFD"/>
<path d="M15.7259 25.8711H6.51172V25.9964H15.7259V25.8711Z" fill="#C8ECFD"/>
<path d="M15.7259 25.6816H6.51172V25.8069H15.7259V25.6816Z" fill="#C7ECFD"/>
<path d="M15.7259 25.5527H6.51172V25.678H15.7259V25.5527Z" fill="#C6ECFD"/>
<path d="M15.7259 25.4258H6.51172V25.5511H15.7259V25.4258Z" fill="#C4EBFC"/>
<path d="M15.7259 25.2441H6.51172V25.3694H15.7259V25.2441Z" fill="#C3EBFC"/>
<path d="M15.7259 25.1172H6.51172V25.2425H15.7259V25.1172Z" fill="#C2EBFC"/>
<path d="M15.7259 24.9902H6.51172V25.1155H15.7259V24.9902Z" fill="#C1EAFC"/>
<path d="M15.7259 24.8027H6.51172V24.928H15.7259V24.8027Z" fill="#C0EAFC"/>
<path d="M15.7259 24.6738H6.51172V24.7991H15.7259V24.6738Z" fill="#BFEAFC"/>
<path d="M15.7259 24.5527H6.51172V24.678H15.7259V24.5527Z" fill="#BEE9FC"/>
<path d="M15.7259 24.4297H6.51172V24.555H15.7259V24.4297Z" fill="#BDE9FC"/>
<path d="M15.7259 24.2344H6.51172V24.3597H15.7259V24.2344Z" fill="#BCE9FC"/>
<path d="M15.7259 24.1094H6.51172V24.2347H15.7259V24.1094Z" fill="#BBE8FC"/>
<path d="M15.7259 23.9902H6.51172V24.1155H15.7259V23.9902Z" fill="#BAE8FC"/>
<path d="M15.7259 23.7988H6.51172V23.9241H15.7259V23.7988Z" fill="#B9E7FC"/>
<path d="M15.7259 23.6719H6.51172V23.7972H15.7259V23.6719Z" fill="#B8E7FC"/>
<path d="M15.7259 23.5469H6.51172V23.6722H15.7259V23.5469Z" fill="#B7E7FC"/>
<path d="M15.7259 23.3574H6.51172V23.4827H15.7259V23.3574Z" fill="#B6E6FC"/>
<path d="M15.7259 23.2363H6.51172V23.3616H15.7259V23.2363Z" fill="#B5E6FB"/>
<path d="M15.7259 23.1113H6.51172V23.2366H15.7259V23.1113Z" fill="#B4E6FB"/>
<path d="M15.7259 22.9219H6.51172V23.0472H15.7259V22.9219Z" fill="#B3E5FB"/>
<path d="M15.7259 22.8027H6.51172V22.928H15.7259V22.8027Z" fill="#B2E5FB"/>
<path d="M15.7259 22.6758H6.51172V22.8011H15.7259V22.6758Z" fill="#B1E5FB"/>
<path d="M15.7259 22.5488H6.51172V22.6741H15.7259V22.5488Z" fill="#B0E4FB"/>
<path d="M15.7259 22.3594H6.51172V22.4847H15.7259V22.3594Z" fill="#AFE4FB"/>
<path d="M15.7259 22.2344H6.51172V22.3597H15.7259V22.2344Z" fill="#AEE4FB"/>
<path d="M15.7259 22.1133H6.51172V22.2386H15.7259V22.1133Z" fill="#ADE3FB"/>
<path d="M15.7259 21.9199H6.51172V22.0452H15.7259V21.9199Z" fill="#ACE3FB"/>
<path d="M15.7259 21.7949H6.51172V21.9202H15.7259V21.7949Z" fill="#ABE3FB"/>
<path d="M15.7259 21.668H6.51172V21.7933H15.7259V21.668Z" fill="#AAE2FB"/>
<path d="M15.7259 21.4766H6.51172V21.6019H15.7259V21.4766Z" fill="#A9E2FB"/>
<path d="M15.7259 21.3555H6.51172V21.4808H15.7259V21.3555Z" fill="#A8E2FB"/>
<path d="M15.7259 21.2324H6.51172V21.3577H15.7259V21.2324Z" fill="#A7E1FB"/>
<path d="M15.7259 21.043H6.51172V21.1683H15.7259V21.043Z" fill="#A6E1FB"/>
<path d="M15.7259 20.9141H6.51172V21.0394H15.7259V20.9141Z" fill="#A5E0FA"/>
<path d="M15.7259 20.7891H6.51172V20.9144H15.7259V20.7891Z" fill="#A4E0FA"/>
<path d="M15.7259 20.666H6.51172V20.7913H15.7259V20.666Z" fill="#A3E0FA"/>
<path d="M15.7259 20.4766H6.51172V20.6019H15.7259V20.4766Z" fill="#A2DFFA"/>
<path d="M15.7259 20.3516H6.51172V20.4769H15.7259V20.3516Z" fill="#A1DFFA"/>
<path d="M15.7259 20.2227H6.51172V20.348H15.7259V20.2227Z" fill="#A0DFFA"/>
<path d="M15.7259 20.0391H6.51172V20.1644H15.7259V20.0391Z" fill="#9FDEFA"/>
<path d="M15.7259 19.916H6.51172V20.0413H15.7259V19.916Z" fill="#9EDEFA"/>
<path d="M39.5542 11.3242H43.1922V21.1502C43.1922 25.5523 41.0094 27.1244 37.5331 27.1244C36.7246 27.1244 35.5928 26.9672 34.8652 26.7314L35.2695 23.9015C35.7545 24.0587 36.4013 24.2159 37.1289 24.2159C38.6649 24.2159 39.5542 23.5871 39.5542 21.1502V11.3242Z" fill="#3E4095"/>
<path d="M55.7243 21.0689C55.7243 25.1566 52.733 27.0431 49.5801 27.0431C46.1847 27.0431 43.5977 24.8421 43.5977 21.2262C43.5977 17.6102 46.023 15.252 49.7418 15.252C53.2989 15.252 55.7243 17.6888 55.7243 21.0689ZM47.3165 21.1475C47.3165 23.1127 48.1249 24.5277 49.661 24.5277C51.0353 24.5277 51.9246 23.1914 51.9246 21.1475C51.9246 19.4968 51.2778 17.7674 49.661 17.7674C47.9632 17.7674 47.3165 19.4968 47.3165 21.1475Z" fill="#3E4095"/>
<path d="M56.1289 10.457H59.7669V16.9029H59.8477C60.2519 16.4312 60.737 16.0382 61.3029 15.7238C61.788 15.4093 62.5156 15.2521 63.1623 15.2521C65.426 15.2521 67.2045 16.8243 67.2045 20.2044V26.8075H63.5666V20.5975C63.5666 19.1039 63.0815 18.082 61.7071 18.082C60.737 18.082 60.1711 18.7109 59.9286 19.3397C59.8477 19.5756 59.8477 19.89 59.8477 20.1258V26.8075H56.1289V10.457Z" fill="#3E4095"/>
<path d="M68.2527 19.1037C68.2527 17.6888 68.1719 16.5097 68.1719 15.4878H71.3248L71.4865 17.0599C71.9715 16.3525 73.1034 15.252 75.0436 15.252C77.3881 15.252 79.1666 16.7455 79.1666 20.047V26.7287H75.5287V20.5187C75.5287 19.1037 75.0436 18.0818 73.6693 18.0818C72.6991 18.0818 72.0524 18.7107 71.8099 19.4182C71.729 19.654 71.6482 19.9684 71.6482 20.2829V26.8073H68.2527V19.1037Z" fill="#3E4095"/>
<path d="M83.6112 23.1935C84.5813 23.6652 86.0365 24.1368 87.5725 24.1368C89.1894 24.1368 90.0787 23.5079 90.0787 22.486C90.0787 21.5427 89.3511 20.9925 87.4108 20.285C84.743 19.4203 83.0453 17.9268 83.0453 15.7258C83.0453 13.0531 85.3089 11.0879 89.1086 11.0879C90.8871 11.0879 92.2615 11.4809 93.1508 11.874L92.3423 14.7039C91.6956 14.3894 90.5638 13.9964 89.0277 13.9964C87.4917 13.9964 86.6832 14.7039 86.6832 15.4899C86.6832 16.5118 87.5725 16.9049 89.6745 17.691C92.504 18.7129 93.7975 20.1278 93.7975 22.3288C93.7975 24.9229 91.7764 27.1239 87.33 27.1239C85.4706 27.1239 83.692 26.6523 82.8027 26.1806L83.6112 23.1935Z" fill="#3E4095"/>
<path d="M94.3648 19.1037C94.3648 17.6888 94.284 16.5097 94.284 15.4878H97.4369L97.5986 17.0599H97.6794C98.1645 16.3525 99.2963 15.252 101.237 15.252C103.581 15.252 105.36 16.7455 105.36 20.047V26.7287H101.722V20.5187C101.722 19.1037 101.237 18.0818 99.8622 18.0818C98.8921 18.0818 98.2453 18.7107 98.0028 19.4182C97.9219 19.654 97.8411 19.9684 97.8411 20.2829V26.8073H94.2031V19.1037H94.3648Z" fill="#3E4095"/>
<path d="M117.892 21.0689C117.892 25.1566 114.901 27.0431 111.748 27.0431C108.353 27.0431 105.766 24.8421 105.766 21.2262C105.766 17.6102 108.191 15.252 111.91 15.252C115.548 15.252 117.892 17.6888 117.892 21.0689ZM109.484 21.1475C109.484 23.1127 110.293 24.5277 111.829 24.5277C113.203 24.5277 114.093 23.1914 114.093 21.1475C114.093 19.4968 113.446 17.7674 111.829 17.7674C110.131 17.7674 109.484 19.4968 109.484 21.1475Z" fill="#3E4095"/>
<path d="M120.642 15.5684L121.531 20.2062C121.774 21.3853 122.016 22.6431 122.178 23.9008H122.259C122.501 22.6431 122.825 21.3067 123.148 20.2062L124.361 15.5684H127.19L128.322 20.049C128.645 21.3067 128.969 22.5645 129.211 23.9008H129.292C129.454 22.6431 129.696 21.3067 129.939 20.049L130.909 15.5684H134.466L130.909 26.8093H127.514L126.463 22.8789C126.139 21.7784 125.978 20.7565 125.735 19.3415H125.654C125.412 20.7565 125.169 21.7784 124.927 22.8789L123.795 26.8093H120.399L117.004 15.5684H120.642Z" fill="#3E4095"/>
<path d="M140.154 15.5762H141.718V25.7348H147.349V27.0122H140.154V15.5762Z" fill="#0098DA"/>
<path d="M149.476 23.3624L148.099 27.0122H146.41L150.852 15.5762H152.791L157.296 27.0122H155.544L154.105 23.3624H149.476ZM153.855 22.2066L152.541 18.8002C152.291 18.0702 152.041 17.4619 151.853 16.8536H151.79C151.603 17.4619 151.415 18.0702 151.165 18.7393L149.851 22.2066H153.855Z" fill="#0098DA"/>
<path d="M157.357 15.7629C158.046 15.6412 159.234 15.5195 160.423 15.5195C162.112 15.5195 163.113 15.7629 163.864 16.3712C164.489 16.8578 164.927 17.5269 164.927 18.4394C164.927 19.5343 164.114 20.5076 162.863 20.9334V20.9942C163.864 21.2375 165.365 22.0892 165.365 23.8532C165.365 24.8265 164.927 25.6173 164.302 26.1648C163.426 26.8947 162.049 27.2597 159.922 27.2597C158.796 27.2597 157.92 27.1989 157.357 27.1381V15.7629ZM158.984 20.4468H160.611C162.362 20.4468 163.301 19.656 163.301 18.561C163.301 17.1619 162.112 16.6753 160.548 16.6753C159.735 16.6753 159.234 16.7361 158.984 16.797V20.4468ZM158.984 25.8606C159.359 25.9215 159.797 25.9215 160.423 25.9215C162.049 25.9215 163.676 25.4348 163.676 23.6707C163.676 22.0892 162.237 21.4809 160.423 21.4809H158.921V25.8606H158.984Z" fill="#0098DA"/>
<path d="M165.68 25.1257C166.431 25.6123 167.557 25.9773 168.746 25.9773C170.435 25.9773 171.373 25.1865 171.373 24.0307C171.373 22.9358 170.747 22.3275 168.933 21.78C166.681 21.1109 165.492 20.1376 165.492 18.4952C165.492 16.6703 167.119 15.332 169.559 15.332C170.935 15.332 171.874 15.6362 172.499 15.9403L172.061 17.1569C171.686 16.9136 170.747 16.5486 169.559 16.5486C167.807 16.5486 167.119 17.5219 167.119 18.2519C167.119 19.286 167.87 19.8335 169.684 20.3809C171.874 21.0501 173 21.9625 173 23.7874C173 25.4906 171.686 27.1331 168.62 27.1331C167.369 27.1331 165.993 26.7681 165.305 26.3423L165.68 25.1257Z" fill="#0098DA"/>
</svg>
