<svg xmlns="http://www.w3.org/2000/svg" width="397" height="459" fill="none"><path fill="#fff" d="m198.337 458.646-1.989-1.151L0 343.986V114.659L198.337 0l198.33 114.659v229.327zM7.959 339.384l190.378 110.058 190.371-110.058V119.261L198.337 9.203 7.959 119.26z"/><g filter="url(#a)"><path fill="#fff" d="M380.553 123.956V334.69L198.338 440.052 16.115 334.69V123.956L198.338 18.594z"/></g><path fill="#39B54A" d="M235.26 97.927a3 3 0 0 0-.474.086 847 847 0 0 0-10.543 2.838q-3.165.883-5.371 1.574-.276.086-.058.273c1.131.964 1.891 1.566 3.028 2.657a.075.075 0 0 1-.007.114 215 215 0 0 0-8.304 6.771q-2.808 2.398-8.56 7.623c-2.352 2.135-4.87 4.592-6.938 6.59a.22.22 0 0 1-.285.016l-14.857-11.348a.146.146 0 0 0-.197.02 3023 3023 0 0 1-9.637 10.976 504 504 0 0 0-11.43 13.444q-.657.8.158.157 4.537-3.586 10.516-8.268c2.088-1.635 4.737-3.569 6.33-4.831 1.573-1.249 2.982-2.226 4.771-3.555a.08.08 0 0 1 .087 0 563 563 0 0 1 14.566 10.878.18.18 0 0 0 .203.013q.225-.133.395-.318c7.493-8.101 15.331-15.476 23.912-22.183a219 219 0 0 0 3.273-2.601q.072-.058.143.003l2.206 1.916q.212.184.342-.061l6.797-12.686a.067.067 0 0 0-.066-.099"/><path fill="#39B54A" d="M170.788 124.481a147 147 0 0 0 3.797-4.264c.184-.215.227-.382.227-.653v-15.195q0-.971.018-2.083.017-.968.181-1.311c.3-.626.909-.973 1.645-.971q25.007.017 40.973-.026.738-.002 1.816-.314 3.411-.99 5.152-1.47a.085.085 0 0 0 .043-.138q-1.36-1.515-3.12-2.023-.738-.214-2.607-.21-16.993.034-41.434.012-1.468-.001-2.16.158c-2.343.538-4.182 2.434-4.604 4.693q-.107.582-.109 3.237-.015 17.286-.022 20.481 0 .299.204.077M225.879 113.381l-3.922 2.917a.33.33 0 0 0-.112.15q-.102.269-.101.74.02 8.054.023 25.795 0 1.254-.065 1.486c-.168.597-.805 1.226-1.547 1.228q-12.072.012-43.267-.005-1.333-.003-1.852-.979-.228-.433-.223-1.273.027-4.093 0-9.647c0-.055-.067-.087-.112-.053l-3.984 2.965a.24.24 0 0 0-.095.183q-.02 1.484-.038 6.536-.005 1.139.153 1.829c.626 2.741 2.987 4.576 5.909 4.569q11.358-.025 41.219-.003 1.675 0 2.747-.023c1.295-.027 2.738-.664 3.691-1.632q1.776-1.802 1.776-4.234l.005-30.451c0-.103-.122-.161-.205-.098"/><path fill="#39B54A" d="m206.954 114.745 10.56-9.025q.055-.048.014-.107c-.361-.519-.795-.676-1.487-.674q-3.497.008-6.995.026-1.04.004-1.397.169-.753.349-.756 1.382-.008 4.096-.021 8.192c0 .042.05.065.082.037M193.745 119.338l4.293 3.112a.11.11 0 0 0 .144-.009 137 137 0 0 1 4.571-4.141c.341-.294.56-.406.561-.855q.002-.855-.006-3.464c-.005-1.164.066-2.025-1.434-2.028q-5.046-.007-7.277.045c-1.069.025-1.232.716-1.237 1.602q-.009 1.844-.006 5.036c.001.324.139.518.391.702M217.538 119.848q0-.312-.229-.088a7 7 0 0 1-.404.362 82 82 0 0 0-3.529 3.083 413 413 0 0 0-6.125 5.749q-.348.335-.353.548-.058 2.39.017 11.605c.005.687.082 1.254.74 1.55q.305.138 1.224.133 3.739-.016 6.581.018 1.048.015 1.339-.146.72-.391.722-1.166.038-8.001.017-21.648M188.685 130.557a558 558 0 0 0-5.029-3.831.23.23 0 0 0-.284.004l-4.053 3.18a.52.52 0 0 0-.197.409q.007 6.515.002 10.839c-.003 1.286.421 1.651 1.704 1.65q4.133-.003 6.518.001c1.019.004 1.728-.223 1.73-1.367q.008-3.521.008-10.189 0-.39-.399-.696M203.1 133.757l-4.524 4.34a.05.05 0 0 1-.06.005 682 682 0 0 1-5.694-3.983.12.12 0 0 0-.095-.025c-.027.006-.048.03-.048.055a503 503 0 0 0-.036 6.5c0 1.214-.102 2.163 1.511 2.16q3.47-.007 6.936-.001c1.164.001 2.188.075 2.205-1.211q.05-3.885-.029-7.781-.006-.213-.166-.059M15.834 188.822h365v69h-365z"/><path fill="#fff" d="M100.695 215.777v14.545H98.06v-14.545zm5.31 8.153v6.392h-2.571v-10.909h2.458v1.854h.128a3.1 3.1 0 0 1 1.2-1.456q.831-.54 2.052-.54 1.13 0 1.968.483.845.483 1.307 1.399.468.916.461 2.223v6.946h-2.571v-6.548q0-1.094-.568-1.712-.561-.618-1.555-.618-.675 0-1.201.299a2.07 2.07 0 0 0-.816.845q-.292.554-.292 1.342m14.375 6.605q-1.633 0-2.805-.717a4.8 4.8 0 0 1-1.797-1.982q-.625-1.27-.625-2.926 0-1.662.639-2.933a4.8 4.8 0 0 1 1.804-1.989q1.172-.717 2.77-.717 1.329 0 2.351.49a4 4 0 0 1 1.641 1.371q.61.88.696 2.06h-2.458a2.34 2.34 0 0 0-.71-1.314q-.554-.533-1.484-.533a2.32 2.32 0 0 0-1.385.426q-.597.419-.931 1.208-.326.788-.326 1.889 0 1.115.326 1.917.327.796.916 1.229.597.426 1.4.426.568 0 1.015-.213.455-.22.76-.632.306-.412.419-1.001h2.458q-.093 1.157-.682 2.052a4.04 4.04 0 0 1-1.605 1.392q-1.016.498-2.387.497m6.785-.213v-10.909h2.493v1.818h.113q.299-.944 1.023-1.456a2.82 2.82 0 0 1 1.669-.518q.213 0 .476.021.27.014.447.05v2.365a2.7 2.7 0 0 0-.518-.099 5 5 0 0 0-.675-.05q-.703 0-1.264.305a2.24 2.24 0 0 0-.874.831 2.34 2.34 0 0 0-.319 1.229v6.413zm12.31.213q-1.641 0-2.834-.681a4.6 4.6 0 0 1-1.825-1.947q-.64-1.263-.64-2.975 0-1.684.64-2.955.646-1.278 1.804-1.989 1.157-.717 2.72-.717 1.008 0 1.903.327a4.3 4.3 0 0 1 1.591.994q.696.675 1.094 1.719.398 1.037.398 2.471v.789h-8.942v-1.733h6.477a2.8 2.8 0 0 0-.319-1.314 2.33 2.33 0 0 0-.874-.916q-.553-.334-1.293-.334-.788 0-1.385.383a2.65 2.65 0 0 0-.93.995 2.86 2.86 0 0 0-.334 1.342v1.513q0 .952.348 1.633.349.675.973 1.037.626.355 1.463.355.561 0 1.016-.156a2.2 2.2 0 0 0 .788-.476q.334-.312.505-.774l2.4.27a3.73 3.73 0 0 1-.866 1.662q-.633.703-1.62 1.094-.987.383-2.258.383m7.026-.213v-10.909h2.457v1.854h.128a2.9 2.9 0 0 1 1.129-1.463q.789-.533 1.882-.533 1.109 0 1.868.54.767.532 1.08 1.456h.113a3 3 0 0 1 1.222-1.449q.867-.547 2.053-.547 1.505 0 2.457.952.951.951.952 2.777v7.322h-2.579v-6.924q0-1.016-.539-1.485-.54-.476-1.321-.476-.931 0-1.456.583-.519.575-.519 1.498v6.804h-2.521v-7.031q0-.845-.511-1.349-.505-.505-1.321-.505-.555 0-1.009.284a2 2 0 0 0-.724.789q-.27.504-.27 1.179v6.633zm22.778.213q-1.64 0-2.833-.681a4.62 4.62 0 0 1-1.826-1.947q-.639-1.263-.639-2.975 0-1.684.639-2.955.647-1.278 1.804-1.989 1.158-.717 2.721-.717 1.008 0 1.903.327a4.3 4.3 0 0 1 1.591.994q.695.675 1.094 1.719.397 1.037.397 2.471v.789h-8.941v-1.733h6.477a2.76 2.76 0 0 0-.32-1.314 2.3 2.3 0 0 0-.873-.916q-.555-.334-1.293-.334-.788 0-1.385.383a2.64 2.64 0 0 0-.93.995 2.86 2.86 0 0 0-.334 1.342v1.513q0 .952.348 1.633.348.675.973 1.037.625.355 1.463.355.561 0 1.016-.156.454-.163.788-.476.335-.312.504-.774l2.401.27a3.74 3.74 0 0 1-.867 1.662q-.632.703-1.619 1.094-.987.383-2.259.383m9.597-6.605v6.392h-2.571v-10.909h2.458v1.854h.128a3.1 3.1 0 0 1 1.2-1.456q.831-.54 2.052-.54 1.13 0 1.968.483.845.483 1.307 1.399.468.916.461 2.223v6.946h-2.571v-6.548q0-1.094-.568-1.712-.56-.618-1.555-.618-.675 0-1.201.299a2.07 2.07 0 0 0-.816.845q-.292.554-.292 1.342m15.064-4.517v1.989h-6.271v-1.989zm-4.723-2.613h2.571v10.241q0 .519.157.795.163.27.426.37t.582.099q.242 0 .44-.035.207-.036.313-.064l.433 2.01a6 6 0 0 1-.589.156q-.376.086-.924.099-.966.029-1.74-.291a2.7 2.7 0 0 1-1.228-1.008q-.448-.682-.441-1.705zm10.013 13.742q-1.037 0-1.868-.369a3.05 3.05 0 0 1-1.307-1.108q-.476-.732-.476-1.804 0-.922.341-1.527a2.65 2.65 0 0 1 .93-.966 4.7 4.7 0 0 1 1.329-.547q.746-.191 1.541-.277a60 60 0 0 0 1.555-.177q.597-.085.867-.256.276-.177.277-.547v-.042q0-.803-.476-1.243-.475-.441-1.371-.441-.945 0-1.498.412-.547.412-.739.973l-2.401-.341q.285-.993.938-1.661.653-.675 1.598-1.009a6.1 6.1 0 0 1 2.088-.341q.788 0 1.569.185.781.184 1.428.611.647.418 1.037 1.143.398.725.398 1.811v7.301h-2.472v-1.498h-.085a3.1 3.1 0 0 1-.661.852 3.2 3.2 0 0 1-1.058.632q-.632.234-1.484.234m.667-1.889q.774 0 1.343-.305.568-.312.873-.824.313-.512.313-1.115v-1.286q-.121.1-.412.185a6 6 0 0 1-.639.149 19 19 0 0 1-.703.114l-.604.085a4.5 4.5 0 0 0-1.03.256 1.7 1.7 0 0 0-.717.497q-.263.312-.263.81 0 .71.518 1.072.519.362 1.321.362m10.249-12.876v14.545h-2.571v-14.545zm7.718 14.545v-14.545h5.455q1.676 0 2.812.582 1.144.582 1.726 1.634.59 1.044.59 2.436 0 1.399-.597 2.429-.59 1.023-1.74 1.584-1.15.554-2.827.554h-3.885v-2.188h3.53q.981 0 1.605-.27.625-.276.924-.802.305-.533.305-1.307t-.305-1.321a1.94 1.94 0 0 0-.931-.838q-.625-.291-1.612-.291h-2.415v12.343zm7.515-6.591 3.6 6.591h-2.94l-3.537-6.591zm10.053 6.804q-1.641 0-2.834-.681a4.6 4.6 0 0 1-1.825-1.947q-.639-1.263-.639-2.975 0-1.684.639-2.955.646-1.278 1.804-1.989 1.157-.717 2.72-.717 1.008 0 1.903.327a4.3 4.3 0 0 1 1.591.994q.696.675 1.094 1.719.398 1.037.398 2.471v.789h-8.942v-1.733h6.477a2.8 2.8 0 0 0-.319-1.314 2.33 2.33 0 0 0-.874-.916q-.554-.334-1.293-.334-.788 0-1.385.383a2.65 2.65 0 0 0-.93.995 2.86 2.86 0 0 0-.334 1.342v1.513q0 .952.348 1.633.349.675.973 1.037.626.355 1.463.355.561 0 1.016-.156a2.2 2.2 0 0 0 .788-.476q.334-.312.505-.774l2.4.27a3.73 3.73 0 0 1-.866 1.662q-.633.703-1.62 1.094-.987.383-2.258.383m16.458-11.122-3.885 10.909h-2.841l-3.885-10.909h2.741l2.507 8.104h.114l2.514-8.104zm6.237 11.122q-1.64 0-2.834-.681a4.6 4.6 0 0 1-1.825-1.947q-.639-1.263-.639-2.975 0-1.684.639-2.955.646-1.278 1.804-1.989 1.158-.717 2.72-.717 1.009 0 1.904.327a4.3 4.3 0 0 1 1.591.994q.696.675 1.093 1.719.398 1.037.398 2.471v.789h-8.942v-1.733h6.477a2.76 2.76 0 0 0-.319-1.314 2.3 2.3 0 0 0-.874-.916q-.554-.334-1.292-.334-.79 0-1.385.383a2.65 2.65 0 0 0-.931.995 2.86 2.86 0 0 0-.333 1.342v1.513q0 .952.348 1.633.348.675.973 1.037.624.355 1.463.355.56 0 1.015-.156.454-.163.789-.476.333-.312.504-.774l2.4.27a3.73 3.73 0 0 1-.866 1.662q-.632.703-1.619 1.094-.987.383-2.259.383m9.597-6.605v6.392h-2.571v-10.909h2.457v1.854h.128a3.1 3.1 0 0 1 1.201-1.456q.831-.54 2.052-.54 1.13 0 1.967.483.846.483 1.307 1.399.47.916.462 2.223v6.946h-2.571v-6.548q0-1.094-.568-1.712-.561-.618-1.556-.618-.674 0-1.2.299a2.07 2.07 0 0 0-.817.845q-.291.554-.291 1.342m16.57 1.804v-6.321h2.571v10.909h-2.493v-1.939h-.114a3.3 3.3 0 0 1-1.214 1.499q-.839.582-2.067.582-1.072 0-1.896-.476-.817-.483-1.279-1.399-.462-.923-.461-2.23v-6.946h2.571v6.548q0 1.038.568 1.648t1.491.611q.568 0 1.101-.277.532-.277.874-.824.348-.554.348-1.385m10.044 4.801q-1.64 0-2.834-.681a4.6 4.6 0 0 1-1.825-1.947q-.639-1.263-.639-2.975 0-1.684.639-2.955.646-1.278 1.804-1.989 1.157-.717 2.72-.717 1.008 0 1.904.327a4.3 4.3 0 0 1 1.59.994q.696.675 1.094 1.719.398 1.037.398 2.471v.789h-8.942v-1.733h6.477a2.76 2.76 0 0 0-.319-1.314 2.33 2.33 0 0 0-.874-.916q-.554-.334-1.292-.334-.79 0-1.385.383a2.65 2.65 0 0 0-.931.995 2.86 2.86 0 0 0-.334 1.342v1.513q0 .952.349 1.633.348.675.973 1.037.624.355 1.463.355.56 0 1.015-.156.454-.163.789-.476.333-.312.504-.774l2.4.27a3.73 3.73 0 0 1-.866 1.662q-.632.703-1.619 1.094-.988.383-2.259.383"/><path fill="#181D27" d="M59.243 282.186h1.682l3.954 9.659h.137l3.954-9.659h1.682v11.636h-1.318v-8.841h-.114l-3.636 8.841h-1.273l-3.636-8.841h-.114v8.841h-1.318zm17.712 11.818q-1.262 0-2.176-.557a3.73 3.73 0 0 1-1.404-1.568q-.489-1.011-.489-2.352t.49-2.364q.493-1.028 1.374-1.602.886-.58 2.068-.58.683 0 1.347.228.664.227 1.21.738.546.505.87 1.341t.323 2.057v.568h-6.727v-1.159h5.364q0-.739-.296-1.318a2.23 2.23 0 0 0-.83-.915q-.533-.335-1.26-.335-.802 0-1.387.398a2.6 2.6 0 0 0-.892 1.022 3 3 0 0 0-.312 1.353v.772q0 .989.34 1.676.347.683.96 1.04.615.353 1.427.353.528 0 .954-.148.432-.153.745-.455a2.1 2.1 0 0 0 .483-.761l1.295.364a2.9 2.9 0 0 1-.687 1.159 3.35 3.35 0 0 1-1.194.772 4.4 4.4 0 0 1-1.596.273m8.221.023a3.5 3.5 0 0 1-1.505-.313 2.6 2.6 0 0 1-1.074-.914q-.398-.603-.398-1.455 0-.75.296-1.216a2.1 2.1 0 0 1 .79-.739q.494-.267 1.09-.397.603-.137 1.21-.216.795-.103 1.29-.154.5-.056.728-.187.232-.13.232-.455v-.045q0-.841-.46-1.307-.455-.466-1.38-.466-.96 0-1.506.421-.546.42-.767.897l-1.273-.454q.34-.795.91-1.239a3.4 3.4 0 0 1 1.25-.625 5.2 5.2 0 0 1 1.34-.182q.42 0 .966.103.55.096 1.063.403.516.307.857.926.341.62.341 1.659v5.75h-1.34v-1.182h-.069q-.135.284-.454.608a2.6 2.6 0 0 1-.847.552q-.528.227-1.29.227m.205-1.205q.795 0 1.34-.312.552-.313.83-.807.284-.495.284-1.04v-1.227q-.084.102-.375.187-.284.08-.659.142-.369.057-.721.103-.347.04-.563.068a5 5 0 0 0-.977.221q-.45.149-.727.449-.273.296-.273.807 0 .699.517 1.057.523.352 1.324.352m7.584-4.25v5.25h-1.341v-8.727h1.295v1.364h.114q.306-.666.932-1.069.624-.409 1.613-.409.886 0 1.551.364a2.45 2.45 0 0 1 1.034 1.091q.37.727.37 1.841v5.545h-1.341v-5.454q0-1.029-.534-1.603-.534-.579-1.466-.579-.642 0-1.148.278a2 2 0 0 0-.79.813q-.29.534-.29 1.295m8.018 5.25v-8.727h1.341v8.727zm.682-10.182a.95.95 0 0 1-.676-.267.86.86 0 0 1-.279-.642q0-.375.279-.642a.95.95 0 0 1 .676-.267q.392 0 .67.267.284.267.284.642t-.284.642a.93.93 0 0 1-.67.267m4.456 4.932v5.25h-1.341v-8.727h1.295v1.364h.114q.307-.666.932-1.069.625-.409 1.614-.409.886 0 1.551.364a2.45 2.45 0 0 1 1.034 1.091q.369.727.369 1.841v5.545h-1.341v-5.454q0-1.029-.534-1.603-.534-.579-1.466-.579-.642 0-1.148.278a2 2 0 0 0-.789.813q-.29.534-.29 1.295m11.541 8.705q-.971 0-1.67-.25a3.5 3.5 0 0 1-1.165-.648 3.5 3.5 0 0 1-.733-.852l1.068-.75q.182.239.46.545.279.313.762.54.488.233 1.278.233 1.057 0 1.744-.511t.688-1.603v-1.772h-.114a7 7 0 0 1-.42.591q-.267.346-.773.619-.5.267-1.352.267a3.65 3.65 0 0 1-1.898-.5q-.835-.5-1.324-1.455-.483-.954-.483-2.318 0-1.34.472-2.335.471-1 1.312-1.546.842-.55 1.944-.551.852 0 1.352.284.506.279.773.637.272.353.42.579h.136v-1.386h1.296v8.977q0 1.125-.512 1.83-.505.71-1.363 1.04a5.2 5.2 0 0 1-1.898.335m-.045-4.796q.807 0 1.363-.369.558-.369.847-1.062.29-.694.29-1.66 0-.942-.284-1.664-.285-.721-.841-1.131-.558-.41-1.375-.409-.853 0-1.421.432a2.6 2.6 0 0 0-.846 1.159 4.5 4.5 0 0 0-.279 1.613q0 .91.284 1.608.29.694.853 1.091.567.392 1.409.392m10.159-7.386v1.136h-4.705v-1.136zm-3.296 8.727v-9.932q0-.75.353-1.25a2.2 2.2 0 0 1 .914-.75q.562-.25 1.188-.25.493 0 .807.08a3 3 0 0 1 .466.148l-.387 1.159a6 6 0 0 0-.284-.085 1.7 1.7 0 0 0-.466-.052q-.665 0-.96.336-.29.335-.29.983v9.613zm10.675-3.568v-5.159h1.341v8.727h-1.341v-1.477h-.091q-.307.664-.954 1.131-.648.46-1.637.46-.818 0-1.454-.358-.637-.363-1-1.091-.364-.733-.364-1.847v-5.545h1.341v5.455q0 .954.534 1.522.54.568 1.375.568a2.3 2.3 0 0 0 1.017-.255 2.2 2.2 0 0 0 .875-.784q.358-.529.358-1.347m5.138-8.068v11.636h-1.341v-11.636zm6.956 11.636v-8.727h1.341v8.727zm.682-10.182a.96.96 0 0 1-.677-.267.86.86 0 0 1-.278-.642.86.86 0 0 1 .278-.642.96.96 0 0 1 .677-.267q.391 0 .67.267a.85.85 0 0 1 .284.642q0 .375-.284.642a.93.93 0 0 1-.67.267m4.456 4.932v5.25h-1.341v-8.727h1.295v1.364h.114q.306-.666.932-1.069.624-.409 1.613-.409.887 0 1.551.364a2.45 2.45 0 0 1 1.034 1.091q.37.727.37 1.841v5.545h-1.341v-5.454q0-1.029-.534-1.603-.534-.579-1.466-.579-.642 0-1.148.278a2 2 0 0 0-.79.813q-.29.534-.289 1.295m11.563 5.432q-1.227 0-2.113-.579a3.8 3.8 0 0 1-1.364-1.597q-.477-1.017-.477-2.324 0-1.329.489-2.347.493-1.022 1.375-1.596.886-.58 2.068-.58.92 0 1.659.341.738.342 1.21.955t.585 1.432h-1.341q-.153-.597-.681-1.057-.524-.466-1.41-.466-.784 0-1.375.409-.585.404-.914 1.142-.324.733-.324 1.722 0 1.011.318 1.761.324.75.909 1.165.591.415 1.386.415.523 0 .949-.182t.722-.523.42-.818h1.341a3.1 3.1 0 0 1-.562 1.392 3.15 3.15 0 0 1-1.176.977q-.728.358-1.694.358m5.393-.182v-8.727h1.295v1.318h.091q.238-.648.864-1.051a2.54 2.54 0 0 1 1.409-.403q.147 0 .369.005a6 6 0 0 1 .335.017v1.364a4 4 0 0 0-.312-.051 3 3 0 0 0-.506-.04q-.636 0-1.136.267-.495.262-.784.727-.285.46-.285 1.052v5.522zm9.346.182q-1.261 0-2.176-.557a3.73 3.73 0 0 1-1.403-1.568q-.489-1.011-.489-2.352t.489-2.364q.493-1.028 1.375-1.602.886-.58 2.068-.58.681 0 1.346.228.666.227 1.211.738.545.505.869 1.341t.324 2.057v.568h-6.728v-1.159h5.364a2.86 2.86 0 0 0-.295-1.318 2.24 2.24 0 0 0-.83-.915q-.534-.335-1.261-.335-.8 0-1.387.398a2.6 2.6 0 0 0-.892 1.022 3 3 0 0 0-.312 1.353v.772q0 .989.341 1.676.346.683.96 1.04.613.353 1.426.353.529 0 .955-.148.432-.153.744-.455.312-.306.483-.761l1.295.364a2.9 2.9 0 0 1-.687 1.159q-.483.494-1.193.772a4.4 4.4 0 0 1-1.597.273m5.654-.182v-8.727h1.295v1.364h.114q.272-.699.88-1.086.608-.392 1.461-.392.863 0 1.437.392.58.387.903 1.086h.091a2.54 2.54 0 0 1 1.006-1.074q.67-.404 1.608-.404 1.17 0 1.915.733.744.728.744 2.267v5.841h-1.341v-5.841q0-.966-.528-1.38a1.96 1.96 0 0 0-1.245-.415q-.92 0-1.426.557-.505.55-.505 1.397v5.682h-1.364v-5.977q0-.744-.483-1.199-.483-.46-1.244-.46-.524 0-.978.278a2.1 2.1 0 0 0-.727.773 2.3 2.3 0 0 0-.273 1.131v5.454zm17.565.182q-1.261 0-2.176-.557a3.74 3.74 0 0 1-1.404-1.568q-.488-1.011-.488-2.352t.488-2.364q.495-1.028 1.375-1.602.887-.58 2.068-.58.683 0 1.347.228.665.227 1.21.738.546.505.87 1.341t.323 2.057v.568h-6.727v-1.159h5.364a2.86 2.86 0 0 0-.296-1.318 2.23 2.23 0 0 0-.829-.915q-.534-.335-1.262-.335-.801 0-1.386.398a2.6 2.6 0 0 0-.892 1.022 3 3 0 0 0-.312 1.353v.772q0 .989.34 1.676.348.683.961 1.04.613.353 1.426.353.528 0 .954-.148.432-.153.745-.455.312-.306.483-.761l1.295.364a2.9 2.9 0 0 1-.687 1.159q-.483.494-1.194.772a4.4 4.4 0 0 1-1.596.273m6.994-5.432v5.25h-1.341v-8.727h1.296v1.364h.113q.307-.666.932-1.069.626-.409 1.614-.409.887 0 1.551.364a2.45 2.45 0 0 1 1.034 1.091q.369.727.369 1.841v5.545h-1.341v-5.454q0-1.029-.534-1.603-.534-.579-1.466-.579-.642 0-1.147.278a2 2 0 0 0-.79.813q-.29.534-.29 1.295m11.814-3.477v1.136h-4.523v-1.136zm-3.204-2.091h1.34v8.318q0 .568.165.853.171.277.432.375.267.09.563.09.22 0 .363-.022l.227-.046.273 1.205a3 3 0 0 1-.381.102 2.8 2.8 0 0 1-.619.057q-.568 0-1.113-.244a2.2 2.2 0 0 1-.898-.745q-.352-.5-.352-1.261zm7.789 11.023a3.5 3.5 0 0 1-1.505-.313 2.6 2.6 0 0 1-1.074-.914q-.398-.603-.398-1.455 0-.75.295-1.216.296-.471.79-.739a4.2 4.2 0 0 1 1.091-.397q.603-.137 1.21-.216.797-.103 1.29-.154.5-.056.727-.187.233-.13.233-.455v-.045q0-.841-.46-1.307-.454-.466-1.381-.466-.96 0-1.505.421-.546.42-.767.897l-1.273-.454q.34-.795.909-1.239a3.4 3.4 0 0 1 1.25-.625 5.2 5.2 0 0 1 1.341-.182q.42 0 .966.103.551.096 1.062.403.518.307.858.926.341.62.341 1.659v5.75h-1.341v-1.182h-.068q-.136.284-.454.608-.319.324-.847.552-.528.227-1.29.227m.205-1.205q.795 0 1.341-.312a2.13 2.13 0 0 0 1.113-1.847v-1.227q-.084.102-.375.187a6 6 0 0 1-.659.142q-.369.057-.721.103-.347.04-.563.068a5 5 0 0 0-.977.221 1.7 1.7 0 0 0-.727.449q-.273.296-.273.807 0 .699.517 1.057.523.352 1.324.352m7.584-10.636v11.636h-1.341v-11.636zm6.956 11.636v-8.727h1.295v1.318h.091q.238-.648.864-1.051a2.54 2.54 0 0 1 1.409-.403q.147 0 .369.005.222.006.335.017v1.364a4 4 0 0 0-.312-.051 3 3 0 0 0-.506-.04q-.636 0-1.136.267-.495.262-.784.727-.284.46-.284 1.052v5.522zm9.346.182q-1.261 0-2.176-.557a3.73 3.73 0 0 1-1.403-1.568q-.489-1.011-.489-2.352t.489-2.364q.494-1.028 1.375-1.602.886-.58 2.068-.58.681 0 1.346.228.665.227 1.211.738.545.505.869 1.341t.324 2.057v.568h-6.727v-1.159h5.363a2.86 2.86 0 0 0-.295-1.318 2.23 2.23 0 0 0-.83-.915q-.534-.335-1.261-.335-.8 0-1.387.398a2.6 2.6 0 0 0-.892 1.022 3 3 0 0 0-.312 1.353v.772q0 .989.341 1.676.346.683.96 1.04.614.353 1.426.353.529 0 .955-.148.432-.153.744-.455.312-.306.483-.761l1.295.364a2.9 2.9 0 0 1-.687 1.159q-.483.494-1.193.772a4.4 4.4 0 0 1-1.597.273m12.524-8.909-3.227 8.727h-1.364l-3.227-8.727h1.455l2.409 6.955h.091l2.409-6.955zm5.117 8.909q-1.261 0-2.176-.557a3.74 3.74 0 0 1-1.404-1.568q-.488-1.011-.488-2.352t.488-2.364q.495-1.028 1.375-1.602.887-.58 2.068-.58.683 0 1.347.228.665.227 1.21.738.546.505.87 1.341t.323 2.057v.568h-6.727v-1.159h5.364a2.86 2.86 0 0 0-.296-1.318 2.23 2.23 0 0 0-.829-.915q-.534-.335-1.262-.335-.801 0-1.386.398a2.6 2.6 0 0 0-.892 1.022 3 3 0 0 0-.312 1.353v.772q0 .989.34 1.676.348.683.961 1.04.613.353 1.426.353.528 0 .954-.148.432-.153.745-.455.312-.306.483-.761l1.295.364a2.9 2.9 0 0 1-.687 1.159q-.483.494-1.194.772a4.4 4.4 0 0 1-1.596.273m6.994-5.432v5.25h-1.341v-8.727h1.296v1.364h.113q.307-.666.932-1.069.625-.409 1.614-.409.887 0 1.551.364a2.45 2.45 0 0 1 1.034 1.091q.369.727.369 1.841v5.545h-1.341v-5.454q0-1.029-.534-1.603-.534-.579-1.466-.579-.642 0-1.147.278a2 2 0 0 0-.79.813q-.29.534-.29 1.295m13.519 1.682v-5.159h1.341v8.727h-1.341v-1.477h-.091q-.307.664-.955 1.131-.648.46-1.636.46-.818 0-1.455-.358-.636-.363-1-1.091-.363-.733-.363-1.847v-5.545h1.341v5.455q0 .954.534 1.522.539.568 1.375.568a2.3 2.3 0 0 0 1.017-.255q.522-.256.875-.784.357-.529.358-1.347m7.456 3.75q-1.262 0-2.177-.557a3.74 3.74 0 0 1-1.403-1.568q-.489-1.011-.489-2.352t.489-2.364q.495-1.028 1.375-1.602.886-.58 2.068-.58.683 0 1.347.228a3.3 3.3 0 0 1 1.21.738q.545.505.869 1.341t.324 2.057v.568h-6.727v-1.159h5.364a2.86 2.86 0 0 0-.296-1.318 2.24 2.24 0 0 0-.829-.915q-.534-.335-1.262-.335-.801 0-1.386.398a2.6 2.6 0 0 0-.892 1.022 3 3 0 0 0-.313 1.353v.772q0 .989.341 1.676.346.683.96 1.04.615.353 1.427.353.528 0 .954-.148.432-.153.744-.455.314-.306.483-.761l1.296.364a2.9 2.9 0 0 1-.688 1.159 3.34 3.34 0 0 1-1.193.772 4.4 4.4 0 0 1-1.596.273m14.039-8.909v1.136h-4.704v-1.136zm-3.295 8.727v-9.932q0-.75.352-1.25a2.2 2.2 0 0 1 .915-.75q.563-.25 1.187-.25.495 0 .807.08t.466.148l-.386 1.159a6 6 0 0 0-.284-.085 1.7 1.7 0 0 0-.466-.052q-.664 0-.96.336-.29.335-.29.983v9.613zm5.175 0v-8.727h1.295v1.318h.091q.239-.648.864-1.051a2.54 2.54 0 0 1 1.409-.403q.147 0 .369.005.222.006.335.017v1.364a4 4 0 0 0-.312-.051 3 3 0 0 0-.506-.04q-.636 0-1.136.267-.495.262-.784.727-.284.46-.284 1.052v5.522zm9.233.182q-1.183 0-2.074-.562-.886-.563-1.387-1.574-.494-1.012-.494-2.364 0-1.364.494-2.381.5-1.017 1.387-1.579.892-.563 2.074-.563t2.068.563q.892.562 1.386 1.579.5 1.017.5 2.381 0 1.352-.5 2.364a3.77 3.77 0 0 1-1.386 1.574q-.887.562-2.068.562m0-1.204q.897 0 1.477-.461a2.7 2.7 0 0 0 .858-1.21q.278-.75.278-1.625t-.278-1.631a2.75 2.75 0 0 0-.858-1.221q-.58-.466-1.477-.466t-1.478.466q-.579.466-.858 1.221a4.7 4.7 0 0 0-.278 1.631q0 .875.278 1.625.279.75.858 1.21.58.46 1.478.461m6.001 1.022v-8.727h1.295v1.364h.114q.273-.699.881-1.086.608-.392 1.46-.392.864 0 1.438.392.579.387.903 1.086h.091a2.54 2.54 0 0 1 1.006-1.074q.67-.404 1.607-.404 1.171 0 1.915.733.745.728.745 2.267v5.841h-1.341v-5.841q0-.966-.529-1.38a1.95 1.95 0 0 0-1.244-.415q-.92 0-1.426.557-.506.55-.506 1.397v5.682H331.2v-5.977q0-.744-.482-1.199-.483-.46-1.245-.46-.522 0-.977.278a2.1 2.1 0 0 0-.727.773 2.3 2.3 0 0 0-.273 1.131v5.454zm-248.98 19.273-3.228 8.727h-1.364l-3.227-8.727h1.455l2.409 6.955h.09l2.41-6.955zm4.072 8.932a3.5 3.5 0 0 1-1.506-.313 2.6 2.6 0 0 1-1.074-.914q-.398-.603-.398-1.455 0-.75.296-1.216a2.1 2.1 0 0 1 .79-.739q.495-.267 1.09-.397.603-.137 1.21-.216.796-.103 1.29-.154.5-.056.728-.187.233-.13.233-.455v-.045q0-.841-.46-1.307-.455-.466-1.381-.466-.96 0-1.506.421-.546.42-.767.897l-1.273-.454q.341-.795.91-1.239a3.4 3.4 0 0 1 1.25-.625 5.2 5.2 0 0 1 1.34-.182q.42 0 .966.103.552.096 1.063.403.516.307.858.926.34.62.34 1.659v5.75h-1.34v-1.182h-.069q-.136.284-.454.608a2.6 2.6 0 0 1-.847.552q-.528.227-1.29.227m.204-1.205q.795 0 1.341-.312.55-.313.83-.807.284-.495.284-1.04v-1.227q-.086.102-.375.187-.285.08-.66.142-.369.057-.721.103-.347.04-.562.068a5 5 0 0 0-.978.221q-.448.149-.727.449-.273.296-.273.807 0 .699.517 1.057.523.352 1.324.352m7.584-10.636v11.636h-1.34v-11.636zm2.456 11.636v-8.727h1.34v8.727zm.682-10.182a.95.95 0 0 1-.676-.267.86.86 0 0 1-.279-.642q0-.375.279-.642a.95.95 0 0 1 .676-.267q.392 0 .67.267a.85.85 0 0 1 .284.642.85.85 0 0 1-.284.642.93.93 0 0 1-.67.267m6.41 10.364q-1.09 0-1.926-.551-.835-.557-1.307-1.568-.471-1.017-.471-2.404 0-1.375.471-2.386.472-1.011 1.313-1.563.84-.55 1.943-.551.852 0 1.347.284.5.279.761.637.267.353.415.579h.113v-4.295h1.341v11.636h-1.295v-1.341h-.159q-.148.239-.421.603-.273.357-.778.642-.506.278-1.347.278m.182-1.204q.806 0 1.364-.421.556-.426.846-1.176.29-.756.29-1.744 0-.978-.284-1.711-.284-.738-.841-1.147-.557-.415-1.375-.415-.852 0-1.42.437-.563.432-.847 1.177a4.7 4.7 0 0 0-.278 1.659q0 .931.284 1.693.29.756.852 1.204.569.444 1.41.444m9.029 1.227a3.5 3.5 0 0 1-1.506-.313 2.6 2.6 0 0 1-1.074-.914q-.398-.603-.398-1.455 0-.75.296-1.216.296-.471.789-.739.495-.267 1.091-.397.603-.137 1.211-.216.795-.103 1.289-.154.5-.056.728-.187.233-.13.233-.455v-.045q0-.841-.461-1.307-.455-.466-1.38-.466-.96 0-1.506.421-.545.42-.767.897l-1.273-.454q.342-.795.909-1.239.575-.448 1.25-.625a5.2 5.2 0 0 1 1.341-.182q.422 0 .966.103.552.096 1.063.403.516.307.858.926.34.62.341 1.659v5.75h-1.341v-1.182h-.069a2.3 2.3 0 0 1-.454.608q-.318.324-.847.552-.528.227-1.289.227m.204-1.205q.795 0 1.341-.312.55-.313.83-.807.284-.495.284-1.04v-1.227q-.086.102-.375.187-.285.08-.659.142-.37.057-.722.103-.347.04-.563.068a5 5 0 0 0-.977.221 1.7 1.7 0 0 0-.727.449q-.273.296-.273.807 0 .699.517 1.057.523.352 1.324.352m10.038-7.727v1.136h-4.522v-1.136zm-3.204-2.091h1.341v8.318q0 .568.165.853.17.277.431.375.267.09.563.09.222 0 .363-.022l.228-.046.272 1.205q-.135.051-.38.102-.245.057-.62.057a2.7 2.7 0 0 1-1.113-.244 2.2 2.2 0 0 1-.898-.745q-.352-.5-.352-1.261zm8.787 11q-1.262 0-2.176-.557a3.74 3.74 0 0 1-1.404-1.568q-.488-1.011-.488-2.352t.488-2.364q.495-1.028 1.375-1.602.887-.58 2.068-.58.683 0 1.347.228.665.227 1.21.738.546.505.87 1.341t.323 2.057v.568h-6.727v-1.159h5.364a2.86 2.86 0 0 0-.296-1.318 2.23 2.23 0 0 0-.829-.915q-.534-.335-1.262-.335-.801 0-1.386.398a2.6 2.6 0 0 0-.892 1.022 3 3 0 0 0-.312 1.353v.772q0 .989.34 1.676.347.683.961 1.04.613.353 1.426.353.528 0 .954-.148.432-.153.745-.455.312-.306.483-.761l1.295.364a2.9 2.9 0 0 1-.687 1.159q-.483.494-1.194.772a4.4 4.4 0 0 1-1.596.273m8.949 0q-1.092 0-1.926-.551-.836-.557-1.307-1.568-.472-1.017-.472-2.404 0-1.375.472-2.386.471-1.011 1.312-1.563.842-.55 1.943-.551.853 0 1.347.284.5.279.761.637.268.353.415.579h.114v-4.295h1.341v11.636h-1.296v-1.341h-.159q-.148.239-.42.603-.273.357-.779.642-.506.278-1.346.278m.181-1.204q.807 0 1.364-.421.557-.426.847-1.176.29-.756.289-1.744 0-.978-.284-1.711-.283-.738-.841-1.147-.556-.415-1.375-.415-.852 0-1.42.437-.562.432-.847 1.177a4.7 4.7 0 0 0-.278 1.659q0 .931.284 1.693.29.756.852 1.204.569.444 1.409.444m11.143 1.022v-11.636h1.409v5.182h6.204v-5.182h1.409v11.636h-1.409v-5.204h-6.204v5.204zm21.207-8h-1.409a2.93 2.93 0 0 0-1.188-1.841 3.2 3.2 0 0 0-.971-.477 3.9 3.9 0 0 0-1.114-.159q-1.056 0-1.915.534-.852.534-1.358 1.574-.5 1.04-.5 2.551t.5 2.551q.506 1.04 1.358 1.574a3.55 3.55 0 0 0 1.915.534q.58 0 1.114-.159t.971-.472a2.97 2.97 0 0 0 1.188-1.846h1.409a4.7 4.7 0 0 1-.58 1.596q-.42.705-1.045 1.199a4.6 4.6 0 0 1-1.404.745 5.2 5.2 0 0 1-1.653.255q-1.488 0-2.648-.727-1.158-.727-1.824-2.068-.664-1.341-.664-3.182t.664-3.182q.666-1.34 1.824-2.068 1.16-.727 2.648-.727.88 0 1.653.255.779.257 1.404.75.625.489 1.045 1.194.421.699.58 1.596m11.641 0h-1.41a2.93 2.93 0 0 0-1.187-1.841 3.2 3.2 0 0 0-.972-.477 3.9 3.9 0 0 0-1.113-.159 3.55 3.55 0 0 0-1.915.534q-.852.534-1.358 1.574-.5 1.04-.5 2.551t.5 2.551q.506 1.04 1.358 1.574a3.55 3.55 0 0 0 1.915.534 3.9 3.9 0 0 0 1.113-.159 3.3 3.3 0 0 0 .972-.472q.442-.318.75-.778a3 3 0 0 0 .437-1.068h1.41a4.7 4.7 0 0 1-.58 1.596q-.42.705-1.045 1.199a4.6 4.6 0 0 1-1.404.745 5.2 5.2 0 0 1-1.653.255q-1.489 0-2.648-.727t-1.824-2.068-.665-3.182.665-3.182q.665-1.34 1.824-2.068 1.159-.727 2.648-.727.88 0 1.653.255.779.257 1.404.75.625.489 1.045 1.194.42.699.58 1.596m6.595 8v-8.727h1.295v1.318h.091q.238-.648.864-1.051a2.54 2.54 0 0 1 1.409-.403q.147 0 .369.005.222.006.335.017v1.364a4 4 0 0 0-.312-.051 3 3 0 0 0-.506-.04q-.636 0-1.136.267-.495.262-.784.727-.285.46-.284 1.052v5.522zm9.346.182q-1.261 0-2.176-.557a3.73 3.73 0 0 1-1.403-1.568q-.489-1.011-.489-2.352t.489-2.364q.494-1.028 1.375-1.602.886-.58 2.068-.58.681 0 1.347.228a3.3 3.3 0 0 1 1.21.738q.545.505.869 1.341t.324 2.057v.568h-6.727v-1.159h5.363a2.86 2.86 0 0 0-.295-1.318 2.23 2.23 0 0 0-.83-.915q-.534-.335-1.261-.335-.801 0-1.386.398a2.6 2.6 0 0 0-.892 1.022 3 3 0 0 0-.313 1.353v.772q0 .989.341 1.676.346.683.96 1.04.614.353 1.426.353.53 0 .955-.148.432-.153.744-.455.312-.306.483-.761l1.296.364a2.9 2.9 0 0 1-.688 1.159q-.483.494-1.193.772a4.4 4.4 0 0 1-1.597.273m9.199 0q-1.228 0-2.113-.579a3.8 3.8 0 0 1-1.364-1.597q-.477-1.017-.477-2.324 0-1.329.488-2.347.495-1.022 1.375-1.596.887-.58 2.068-.58.92 0 1.66.341.738.342 1.21.955.471.613.585 1.432h-1.341q-.153-.597-.682-1.057-.522-.466-1.409-.466-.784 0-1.375.409-.585.404-.915 1.142-.324.733-.323 1.722 0 1.011.318 1.761.324.75.909 1.165.591.415 1.386.415.523 0 .949-.182t.722-.523.42-.818h1.341a3.1 3.1 0 0 1-1.739 2.369q-.727.358-1.693.358m7.96.023a3.5 3.5 0 0 1-1.505-.313 2.6 2.6 0 0 1-1.074-.914q-.398-.603-.398-1.455 0-.75.296-1.216.296-.471.789-.739.495-.267 1.091-.397.603-.137 1.21-.216.797-.103 1.29-.154.5-.056.728-.187.232-.13.232-.455v-.045q0-.841-.46-1.307-.454-.466-1.38-.466-.96 0-1.506.421-.546.42-.767.897l-1.273-.454q.34-.795.909-1.239a3.4 3.4 0 0 1 1.25-.625 5.2 5.2 0 0 1 1.341-.182q.42 0 .966.103a3.1 3.1 0 0 1 1.063.403q.516.307.857.926.341.62.341 1.659v5.75h-1.341v-1.182h-.068q-.136.284-.454.608t-.847.552q-.528.227-1.29.227m.205-1.205q.795 0 1.341-.312a2.13 2.13 0 0 0 1.113-1.847v-1.227q-.084.102-.375.187a6 6 0 0 1-.659.142q-.369.057-.721.103-.347.04-.563.068a5 5 0 0 0-.977.221 1.7 1.7 0 0 0-.727.449q-.273.296-.273.807 0 .699.517 1.057.523.352 1.324.352m6.243 4.273v-12h1.295v1.386h.159q.148-.226.409-.579.267-.358.762-.637.5-.284 1.352-.284 1.103 0 1.943.551.841.552 1.313 1.563.471 1.012.471 2.386 0 1.387-.471 2.404-.472 1.011-1.307 1.568-.836.55-1.926.551-.841 0-1.347-.278-.505-.285-.778-.642a9 9 0 0 1-.421-.603h-.113v4.614zm1.318-7.636q0 .988.29 1.744.29.75.846 1.176.558.42 1.364.421.841 0 1.403-.444.568-.448.853-1.204a4.7 4.7 0 0 0 .289-1.693q0-.921-.284-1.659-.278-.745-.846-1.177-.563-.437-1.415-.437-.818 0-1.375.415-.557.409-.841 1.147-.284.733-.284 1.711m12.227-4.364v1.136h-4.522v-1.136zm-3.204-2.091h1.341v8.318q0 .568.164.853.171.277.432.375.267.09.563.09a2.4 2.4 0 0 0 .363-.022l.228-.046.272 1.205a3 3 0 0 1-.38.102q-.245.057-.62.057a2.7 2.7 0 0 1-1.113-.244 2.2 2.2 0 0 1-.898-.745q-.352-.5-.352-1.261zm10.721 7.25v-5.159h1.341v8.727h-1.341v-1.477h-.091a2.86 2.86 0 0 1-.954 1.131q-.648.46-1.636.46-.819 0-1.455-.358-.637-.363-1-1.091-.363-.733-.364-1.847v-5.545h1.341v5.455q0 .954.534 1.522.54.568 1.375.568.501 0 1.017-.255.524-.256.875-.784.358-.529.358-1.347m3.797 3.568v-8.727h1.296v1.318h.091q.239-.648.863-1.051a2.54 2.54 0 0 1 1.409-.403q.148 0 .37.005.22.006.335.017v1.364a4 4 0 0 0-.313-.051 3 3 0 0 0-.505-.04q-.637 0-1.137.267a2 2 0 0 0-.784.727 1.97 1.97 0 0 0-.284 1.052v5.522zm9.347.182q-1.262 0-2.176-.557a3.74 3.74 0 0 1-1.404-1.568q-.488-1.011-.488-2.352t.488-2.364q.495-1.028 1.375-1.602.887-.58 2.068-.58.683 0 1.347.228.665.227 1.21.738.546.505.87 1.341t.323 2.057v.568h-6.727v-1.159h5.364a2.86 2.86 0 0 0-.296-1.318 2.23 2.23 0 0 0-.829-.915q-.534-.335-1.262-.335-.801 0-1.386.398a2.6 2.6 0 0 0-.892 1.022 3 3 0 0 0-.312 1.353v.772q0 .989.34 1.676.347.683.961 1.04.613.353 1.426.353.528 0 .954-.148.432-.153.745-.455.312-.306.483-.761l1.295.364a2.9 2.9 0 0 1-.687 1.159q-.483.494-1.194.772a4.4 4.4 0 0 1-1.596.273m13.562-.977v-7.5h1.273v7.5zm-3.113-3.114v-1.273h7.5v1.273zm14.751 3.909v-8.727h1.341v8.727zm.682-10.182a.95.95 0 0 1-.676-.267.86.86 0 0 1-.279-.642q0-.375.279-.642a.95.95 0 0 1 .676-.267q.392 0 .67.267.285.267.284.642 0 .375-.284.642a.93.93 0 0 1-.67.267m4.456 4.932v5.25h-1.341v-8.727h1.295v1.364h.114q.307-.666.932-1.069.625-.409 1.613-.409.886 0 1.552.364a2.45 2.45 0 0 1 1.034 1.091q.369.727.369 1.841v5.545h-1.341v-5.454q0-1.029-.534-1.603-.534-.579-1.466-.579-.642 0-1.148.278a2 2 0 0 0-.789.813q-.29.534-.29 1.295m13.018-.363v1.25h-5.091v-1.25zm3.223 8.886a3 3 0 0 1-.608-.057 1.6 1.6 0 0 1-.369-.102l.341-1.182q.489.125.864.091t.664-.335q.296-.295.54-.96l.25-.682-3.227-8.773h1.454l2.41 6.955h.09l2.41-6.955h1.454l-3.704 10a3.8 3.8 0 0 1-.62 1.119 2.3 2.3 0 0 1-.858.665 2.64 2.64 0 0 1-1.091.216m11.39-3.091q-1.262 0-2.177-.557a3.74 3.74 0 0 1-1.403-1.568q-.489-1.011-.489-2.352t.489-2.364q.495-1.028 1.375-1.602.886-.58 2.068-.58.683 0 1.347.228a3.3 3.3 0 0 1 1.21.738q.546.505.869 1.341.324.836.324 2.057v.568h-6.727v-1.159h5.364a2.86 2.86 0 0 0-.296-1.318 2.24 2.24 0 0 0-.829-.915q-.535-.335-1.262-.335-.801 0-1.386.398a2.6 2.6 0 0 0-.892 1.022 3 3 0 0 0-.313 1.353v.772q0 .989.341 1.676.346.683.96 1.04.614.353 1.427.353.528 0 .954-.148.432-.153.744-.455.314-.306.483-.761l1.296.364a2.9 2.9 0 0 1-.688 1.159 3.34 3.34 0 0 1-1.193.772 4.4 4.4 0 0 1-1.596.273m8.221.023a3.5 3.5 0 0 1-1.506-.313 2.6 2.6 0 0 1-1.073-.914q-.399-.603-.398-1.455 0-.75.295-1.216.296-.471.79-.739a4.2 4.2 0 0 1 1.091-.397q.603-.137 1.21-.216.796-.103 1.29-.154.5-.056.727-.187.233-.13.233-.455v-.045q0-.841-.46-1.307-.454-.466-1.381-.466-.96 0-1.505.421-.546.42-.767.897l-1.273-.454q.34-.795.909-1.239a3.4 3.4 0 0 1 1.25-.625 5.2 5.2 0 0 1 1.341-.182q.42 0 .966.103.55.096 1.062.403.517.307.858.926.34.62.341 1.659v5.75h-1.341v-1.182h-.068q-.136.284-.455.608a2.6 2.6 0 0 1-.846.552q-.528.227-1.29.227m.205-1.205q.795 0 1.341-.312a2.13 2.13 0 0 0 1.113-1.847v-1.227q-.086.102-.375.187a6 6 0 0 1-.659.142q-.37.057-.721.103-.348.04-.563.068a5 5 0 0 0-.977.221 1.7 1.7 0 0 0-.728.449q-.272.296-.272.807 0 .699.517 1.057.522.352 1.324.352m6.243 1v-8.727h1.295v1.318h.091q.238-.648.864-1.051a2.54 2.54 0 0 1 1.409-.403q.147 0 .369.005a6 6 0 0 1 .335.017v1.364a4 4 0 0 0-.312-.051 3 3 0 0 0-.506-.04q-.636 0-1.136.267-.495.262-.784.727-.285.46-.285 1.052v5.522zM174.2 350.004q-1.227 0-2.113-.579a3.8 3.8 0 0 1-1.364-1.597q-.477-1.017-.477-2.324 0-1.329.489-2.347.493-1.022 1.375-1.596.886-.58 2.068-.58.92 0 1.659.341.738.342 1.21.955t.585 1.432h-1.341q-.153-.597-.681-1.057-.523-.466-1.41-.466-.784 0-1.375.409-.585.404-.914 1.142-.324.733-.324 1.722 0 1.011.318 1.761.324.75.909 1.165.591.415 1.386.415.523 0 .949-.182t.722-.523.42-.818h1.341a3.1 3.1 0 0 1-.562 1.392 3.15 3.15 0 0 1-1.176.977q-.728.358-1.694.358m7.961.023a3.5 3.5 0 0 1-1.506-.313 2.6 2.6 0 0 1-1.074-.914q-.398-.603-.398-1.455 0-.75.296-1.216.295-.471.79-.739.494-.267 1.091-.397a13 13 0 0 1 1.21-.216q.795-.103 1.29-.154.5-.056.727-.187.233-.13.233-.455v-.045q0-.841-.46-1.307-.455-.466-1.381-.466-.96 0-1.506.421-.545.42-.767.897l-1.273-.454q.342-.795.91-1.239a3.4 3.4 0 0 1 1.25-.625 5.2 5.2 0 0 1 1.34-.182q.422 0 .966.103.552.096 1.063.403.517.307.858.926.34.62.341 1.659v5.75h-1.341v-1.182h-.068a2.4 2.4 0 0 1-.455.608q-.318.324-.847.552-.528.227-1.289.227m.204-1.205q.797 0 1.341-.312.552-.313.83-.807.284-.495.284-1.04v-1.227q-.085.102-.375.187-.285.08-.659.142-.37.057-.722.103-.346.04-.562.068a5 5 0 0 0-.978.221 1.7 1.7 0 0 0-.727.449q-.273.296-.273.807 0 .699.517 1.057.523.352 1.324.352m6.243 4.273v-12h1.296v1.386h.159q.148-.226.409-.579.267-.358.761-.637.5-.284 1.352-.284 1.102 0 1.944.551.84.552 1.312 1.563.472 1.012.472 2.386 0 1.387-.472 2.404-.471 1.011-1.307 1.568-.836.55-1.926.551-.84 0-1.346-.278-.506-.285-.779-.642a9 9 0 0 1-.42-.603h-.114v4.614zm1.318-7.636q0 .988.29 1.744.29.75.847 1.176.556.42 1.363.421.842 0 1.404-.444.568-.448.852-1.204.29-.762.29-1.693 0-.921-.284-1.659-.279-.745-.847-1.177-.563-.437-1.415-.437-.817 0-1.375.415-.556.409-.841 1.147-.284.733-.284 1.711m12.228-4.364v1.136h-4.523v-1.136zm-3.205-2.091h1.341v8.318q0 .568.165.853.17.277.432.375.267.09.562.09.222 0 .364-.022l.227-.046.273 1.205a3 3 0 0 1-.381.102 2.8 2.8 0 0 1-.619.057q-.568 0-1.114-.244a2.2 2.2 0 0 1-.898-.745q-.352-.5-.352-1.261zm10.722 7.25v-5.159h1.341v8.727h-1.341v-1.477h-.091q-.307.664-.955 1.131-.648.46-1.636.46-.818 0-1.455-.358-.636-.363-1-1.091-.363-.733-.363-1.847v-5.545h1.341v5.455q0 .954.534 1.522.539.568 1.375.568a2.3 2.3 0 0 0 1.017-.255q.522-.256.875-.784.358-.529.358-1.347m3.797 3.568v-8.727h1.295v1.318h.091q.238-.648.864-1.051a2.54 2.54 0 0 1 1.409-.403q.147 0 .369.005a6 6 0 0 1 .335.017v1.364a4 4 0 0 0-.312-.051 3 3 0 0 0-.506-.04q-.636 0-1.136.267-.495.261-.784.727-.285.46-.285 1.052v5.522zm9.346.182q-1.261 0-2.176-.557a3.73 3.73 0 0 1-1.403-1.568q-.489-1.011-.489-2.352t.489-2.364q.493-1.028 1.375-1.602.886-.58 2.068-.58.681 0 1.346.228.666.226 1.211.738.545.505.869 1.341t.324 2.057v.568H219.7v-1.159h5.364a2.86 2.86 0 0 0-.295-1.318 2.24 2.24 0 0 0-.83-.915q-.534-.335-1.261-.335-.8 0-1.387.398a2.6 2.6 0 0 0-.892 1.022 3 3 0 0 0-.312 1.353v.772q0 .989.341 1.676.346.683.96 1.04.613.353 1.426.353.529 0 .955-.148.432-.153.744-.455.312-.306.483-.761l1.295.364a2.9 2.9 0 0 1-.687 1.159q-.483.494-1.193.772a4.4 4.4 0 0 1-1.597.273"/><defs><filter id="a" width="396.438" height="453.459" x=".115" y="2.594" color-interpolation-filters="sRGB" filterUnits="userSpaceOnUse"><feFlood flood-opacity="0" result="BackgroundImageFix"/><feColorMatrix in="SourceAlpha" result="hardAlpha" values="0 0 0 0 0 0 0 0 0 0 0 0 0 0 0 0 0 0 127 0"/><feOffset/><feGaussianBlur stdDeviation="8"/><feComposite in2="hardAlpha" operator="out"/><feColorMatrix values="0 0 0 0 0.199829 0 0 0 0 0.753205 0 0 0 0 0.126741 0 0 0 0.5 0"/><feBlend in2="BackgroundImageFix" result="effect1_dropShadow_2041_13289"/><feBlend in="SourceGraphic" in2="effect1_dropShadow_2041_13289" result="shape"/></filter></defs></svg>