<svg xmlns="http://www.w3.org/2000/svg" width="397" height="459" fill="none"><path fill="#fff" d="m198.337 458.646-1.989-1.151L0 343.986V114.659L198.337 0l198.33 114.659v229.327zM7.959 339.384l190.378 110.058 190.371-110.058V119.261L198.337 9.203 7.959 119.26z"/><g filter="url(#a)"><path fill="#fff" d="M380.553 123.956V334.69L198.338 440.052 16.115 334.69V123.956L198.338 18.594z"/></g><path fill="#EE9441" fill-rule="evenodd" d="m185.612 144.411-18.787-18.786a3.97 3.97 0 0 1 0-5.603l18.787-18.787a3.97 3.97 0 0 1 5.603 0l1.014 1.015a3.97 3.97 0 0 1 0 5.603l-12.169 12.169a3.97 3.97 0 0 0 0 5.603l12.169 12.168a3.97 3.97 0 0 1 0 5.604l-1.014 1.014a3.97 3.97 0 0 1-5.603 0M211.056 144.411l18.786-18.786a3.97 3.97 0 0 0 0-5.603l-18.786-18.787a3.97 3.97 0 0 0-5.603 0l-1.014 1.015a3.97 3.97 0 0 0 0 5.603l12.168 12.169a3.97 3.97 0 0 1 0 5.603l-12.168 12.168a3.97 3.97 0 0 0 0 5.604l1.014 1.014a3.97 3.97 0 0 0 5.603 0" clip-rule="evenodd"/><path fill="#EE9441" fill-rule="evenodd" d="M214.722 121.969a3.36 3.36 0 0 1-.871 3.228l-13.143 13.142a3.364 3.364 0 0 1-4.749 0l-13.142-13.142a3.36 3.36 0 0 1-.783-3.515c.021-.021 5.665-5.645 14.157-1.275 8.503 4.377 18.523 1.565 18.531 1.562M203.573 113.371a2.97 2.97 0 1 1 0 5.942 2.97 2.97 0 0 1 0-5.942M200.007 100.957a1.407 1.407 0 1 1 0 2.814 1.407 1.407 0 0 1 0-2.814M195.002 108.211a2.377 2.377 0 1 1 0 4.753 2.377 2.377 0 0 1 0-4.753" clip-rule="evenodd"/><path fill="#EE9441" d="M15.834 188.822h365v69h-365z"/><path fill="#fff" d="M130.198 230.322v-14.545h2.635v6.157h6.74v-6.157h2.642v14.545h-2.642v-6.179h-6.74v6.179zm14.77 0v-10.909h2.571v10.909zm1.292-12.457a1.5 1.5 0 0 1-1.051-.405 1.3 1.3 0 0 1-.44-.987q0-.582.44-.987a1.49 1.49 0 0 1 1.051-.412q.618 0 1.051.412.441.405.441.987 0 .575-.441.987-.433.405-1.051.405m8.667 16.775q-1.386 0-2.38-.376-.993-.37-1.598-.994a3.46 3.46 0 0 1-.838-1.385l2.316-.561q.156.319.454.632.299.32.803.525.511.213 1.285.213 1.094 0 1.811-.532.718-.526.718-1.733v-2.067h-.128a3.7 3.7 0 0 1-.583.817q-.375.419-1.001.703-.618.284-1.555.284-1.257 0-2.28-.589-1.016-.597-1.62-1.776-.596-1.186-.596-2.969 0-1.797.596-3.032.604-1.243 1.627-1.883a4.2 4.2 0 0 1 2.28-.646q.959 0 1.576.327.626.32.995.774.369.447.561.845h.142v-1.804h2.535V230.5q0 1.399-.667 2.315-.668.916-1.825 1.371t-2.628.454m.021-6.491q.816 0 1.392-.398.576-.397.874-1.143t.298-1.79q0-1.03-.298-1.804-.292-.774-.867-1.2-.568-.433-1.399-.433-.86 0-1.435.447t-.866 1.229q-.291.774-.291 1.761 0 1.002.291 1.754.299.746.873 1.165.584.412 1.428.412m10.305-4.219v6.392h-2.571v-14.545h2.515v5.49h.127a3.16 3.16 0 0 1 1.186-1.456q.81-.54 2.06-.54 1.137 0 1.982.476t1.306 1.392q.47.917.469 2.237v6.946h-2.571v-6.548q0-1.1-.568-1.712-.561-.618-1.577-.618-.681 0-1.221.299a2.1 2.1 0 0 0-.838.845q-.299.554-.299 1.342m14.525 6.605q-1.641 0-2.834-.681a4.62 4.62 0 0 1-1.826-1.947q-.639-1.263-.639-2.975 0-1.684.639-2.955.647-1.278 1.804-1.989 1.158-.717 2.721-.717 1.008 0 1.903.327a4.3 4.3 0 0 1 1.591.994q.695.675 1.094 1.719.397 1.037.397 2.471v.789h-8.941v-1.733h6.477a2.76 2.76 0 0 0-.32-1.314 2.3 2.3 0 0 0-.873-.916q-.554-.334-1.293-.334-.788 0-1.385.383a2.64 2.64 0 0 0-.93.995 2.86 2.86 0 0 0-.334 1.342v1.513q0 .952.348 1.633.348.675.973 1.037.625.355 1.463.355.561 0 1.016-.156.454-.163.788-.476t.504-.774l2.401.27a3.74 3.74 0 0 1-.867 1.662q-.632.703-1.619 1.094-.987.383-2.258.383m7.025-.213v-10.909h2.493v1.818h.114q.298-.944 1.023-1.456a2.8 2.8 0 0 1 1.669-.518q.213 0 .476.021.27.014.447.05v2.365a2.7 2.7 0 0 0-.518-.099 5 5 0 0 0-.675-.05q-.703 0-1.264.305-.555.298-.874.831-.32.533-.32 1.229v6.413zm25.455-9.638h-2.656a3.3 3.3 0 0 0-.419-1.157 3.1 3.1 0 0 0-.76-.867 3.2 3.2 0 0 0-1.037-.532 4 4 0 0 0-1.243-.185q-1.187 0-2.102.597-.916.589-1.435 1.733-.518 1.136-.518 2.777 0 1.668.518 2.812.526 1.137 1.435 1.719.916.575 2.095.575a4.3 4.3 0 0 0 1.221-.17 3.4 3.4 0 0 0 1.03-.519q.462-.34.774-.838.32-.497.441-1.136l2.656.014a5.7 5.7 0 0 1-.646 1.946 5.8 5.8 0 0 1-1.286 1.605q-.795.688-1.861 1.08-1.065.383-2.365.383-1.917 0-3.423-.888t-2.372-2.564q-.867-1.676-.867-4.019 0-2.352.874-4.02.873-1.677 2.379-2.564 1.506-.888 3.409-.888 1.215 0 2.259.341a5.8 5.8 0 0 1 1.861 1.001 5.3 5.3 0 0 1 1.342 1.605q.532.945.696 2.159m7.058 9.851q-1.598 0-2.77-.703a4.8 4.8 0 0 1-1.818-1.967q-.639-1.264-.639-2.955 0-1.69.639-2.961a4.77 4.77 0 0 1 1.818-1.975q1.172-.702 2.77-.703 1.598 0 2.77.703a4.7 4.7 0 0 1 1.811 1.975q.646 1.27.646 2.961t-.646 2.955a4.73 4.73 0 0 1-1.811 1.967q-1.172.703-2.77.703m.014-2.059q.867 0 1.449-.476.582-.483.866-1.293a5.3 5.3 0 0 0 .292-1.804q0-1-.292-1.811-.284-.817-.866-1.3t-1.449-.483q-.888 0-1.477.483-.583.483-.874 1.3a5.5 5.5 0 0 0-.284 1.811q0 .994.284 1.804.291.81.874 1.293.59.476 1.477.476m11.444 2.038q-1.285 0-2.302-.66-1.016-.661-1.605-1.918-.59-1.257-.589-3.054 0-1.818.596-3.068.604-1.257 1.627-1.897a4.2 4.2 0 0 1 2.28-.646q.958 0 1.576.327.618.32.981.774.362.447.561.845h.106v-5.44h2.578v14.545h-2.528v-1.718h-.156a4.4 4.4 0 0 1-.576.845 3.2 3.2 0 0 1-.994.753q-.618.312-1.555.312m.717-2.109q.816 0 1.392-.441.576-.447.874-1.243.297-.795.298-1.853 0-1.059-.298-1.84-.292-.781-.867-1.214-.568-.433-1.399-.433-.86 0-1.435.447t-.866 1.236-.291 1.804q0 1.023.291 1.825.298.795.873 1.257.583.455 1.428.455m7.832 1.917v-10.909h2.571v10.909zm1.293-12.457a1.5 1.5 0 0 1-1.052-.405 1.3 1.3 0 0 1-.44-.987q0-.582.44-.987a1.49 1.49 0 0 1 1.052-.412q.618 0 1.051.412.44.405.44.987 0 .575-.44.987-.433.405-1.051.405m6.493 6.065v6.392h-2.571v-10.909h2.457v1.854h.128a3.1 3.1 0 0 1 1.2-1.456q.83-.54 2.053-.54 1.13 0 1.967.483a3.25 3.25 0 0 1 1.307 1.399q.469.916.462 2.223v6.946h-2.571v-6.548q0-1.094-.569-1.712-.56-.618-1.555-.618-.675 0-1.2.299a2.07 2.07 0 0 0-.817.845q-.291.554-.291 1.342m14.361 10.71q-1.386 0-2.38-.376-.994-.37-1.598-.994a3.46 3.46 0 0 1-.838-1.385l2.316-.561q.156.319.454.632.299.32.803.525.511.213 1.285.213 1.094 0 1.811-.532.718-.526.718-1.733v-2.067h-.128a3.7 3.7 0 0 1-.583.817 3 3 0 0 1-1.001.703q-.618.284-1.555.284-1.257 0-2.28-.589-1.015-.597-1.62-1.776-.596-1.186-.596-2.969 0-1.797.596-3.032.604-1.243 1.627-1.883a4.2 4.2 0 0 1 2.28-.646q.958 0 1.576.327.626.32.995.774.369.447.561.845h.142v-1.804h2.535V230.5q0 1.399-.667 2.315-.668.916-1.826 1.371t-2.627.454m.021-6.491q.816 0 1.392-.398.576-.397.874-1.143.297-.746.298-1.79 0-1.03-.298-1.804-.292-.774-.867-1.2-.568-.433-1.399-.433-.86 0-1.435.447t-.866 1.229q-.291.774-.291 1.761 0 1.002.291 1.754.299.746.873 1.165.583.412 1.428.412"/><path fill="#181D27" d="M90.985 293.822v-11.636h1.41v5.182h6.204v-5.182h1.409v11.636h-1.41v-5.204h-6.204v5.204zm11.662 0v-8.727h1.341v8.727zm.682-10.182a.95.95 0 0 1-.676-.267.86.86 0 0 1-.279-.642q0-.375.279-.642a.95.95 0 0 1 .676-.267q.392 0 .67.267.285.267.285.642t-.285.642a.93.93 0 0 1-.67.267m6.638 13.637q-.972 0-1.671-.25a3.5 3.5 0 0 1-1.164-.648 3.5 3.5 0 0 1-.733-.852l1.068-.75q.181.239.46.545.279.313.761.54.489.233 1.279.233 1.056 0 1.744-.511t.688-1.603v-1.772h-.114a8 8 0 0 1-.42.591q-.268.346-.773.619-.5.267-1.352.267-1.058 0-1.898-.5-.835-.5-1.324-1.455-.483-.954-.483-2.318 0-1.34.472-2.335.47-1 1.312-1.546.841-.55 1.943-.551.852 0 1.353.284.505.279.772.637.273.353.421.579h.136v-1.386h1.296v8.977q0 1.125-.512 1.83a2.9 2.9 0 0 1-1.363 1.04 5.2 5.2 0 0 1-1.898.335m-.046-4.796q.807 0 1.364-.369.556-.369.847-1.062t.289-1.66q0-.942-.284-1.664-.283-.721-.841-1.131-.556-.41-1.375-.409-.852 0-1.42.432a2.63 2.63 0 0 0-.847 1.159 4.5 4.5 0 0 0-.278 1.613q0 .91.284 1.608.29.694.852 1.091.569.392 1.409.392m7.614-3.909v5.25h-1.341v-11.636h1.341v4.273h.114q.306-.677.92-1.074.62-.404 1.648-.404.891 0 1.562.358.67.353 1.04 1.086.375.726.375 1.852v5.545h-1.341v-5.454q0-1.04-.54-1.608-.534-.574-1.483-.574-.659 0-1.181.278a2.04 2.04 0 0 0-.819.813q-.295.534-.295 1.295m11.771 5.432q-1.261 0-2.176-.557a3.73 3.73 0 0 1-1.403-1.568q-.489-1.011-.489-2.352t.489-2.364q.494-1.028 1.375-1.602.886-.58 2.068-.58.681 0 1.347.228a3.3 3.3 0 0 1 1.21.738q.545.505.869 1.341t.324 2.057v.568h-6.727v-1.159h5.363a2.86 2.86 0 0 0-.295-1.318 2.23 2.23 0 0 0-.83-.915q-.534-.335-1.261-.335-.801 0-1.386.398a2.6 2.6 0 0 0-.892 1.022 3 3 0 0 0-.313 1.353v.772q0 .989.341 1.676.346.683.96 1.04.614.353 1.426.353.53 0 .955-.148.432-.153.744-.455.312-.306.483-.761l1.296.364a2.9 2.9 0 0 1-.688 1.159q-.483.494-1.193.772a4.4 4.4 0 0 1-1.597.273m5.654-.182v-8.727h1.295v1.318h.091q.238-.648.864-1.051a2.54 2.54 0 0 1 1.409-.403q.147 0 .369.005.222.006.335.017v1.364a4 4 0 0 0-.312-.051 3 3 0 0 0-.506-.04q-.636 0-1.136.267-.495.262-.784.727-.285.46-.284 1.052v5.522zm13.998.182q-1.227 0-2.113-.579a3.8 3.8 0 0 1-1.364-1.597q-.477-1.017-.477-2.324 0-1.329.488-2.347.495-1.022 1.375-1.596.887-.58 2.069-.58.92 0 1.659.341.738.342 1.21.955.471.613.585 1.432h-1.341q-.153-.597-.682-1.057-.522-.466-1.409-.466-.783 0-1.375.409-.585.404-.914 1.142-.324.733-.324 1.722 0 1.011.318 1.761.324.75.909 1.165.591.415 1.386.415.523 0 .949-.182t.722-.523.42-.818h1.341a3.1 3.1 0 0 1-.562 1.392 3.14 3.14 0 0 1-1.177.977q-.726.358-1.693.358m8.938 0q-1.182 0-2.074-.562-.887-.563-1.386-1.574-.495-1.012-.495-2.364 0-1.364.495-2.381.5-1.017 1.386-1.579.892-.563 2.074-.563t2.068.563q.892.562 1.386 1.579.5 1.017.5 2.381 0 1.352-.5 2.364a3.76 3.76 0 0 1-1.386 1.574q-.886.562-2.068.562m0-1.204q.898 0 1.477-.461a2.7 2.7 0 0 0 .858-1.21q.278-.75.278-1.625t-.278-1.631a2.75 2.75 0 0 0-.858-1.221q-.58-.466-1.477-.466t-1.477.466-.858 1.221a4.7 4.7 0 0 0-.279 1.631q0 .875.279 1.625.278.75.858 1.21.579.46 1.477.461m9.297 1.204q-1.092 0-1.926-.551-.836-.557-1.307-1.568-.472-1.017-.472-2.404 0-1.375.472-2.386.471-1.011 1.312-1.563.842-.55 1.943-.551.853 0 1.347.284.5.279.761.637.268.353.415.579h.114v-4.295h1.341v11.636h-1.296v-1.341h-.159q-.148.239-.42.603-.273.357-.779.642-.506.278-1.346.278m.181-1.204q.807 0 1.364-.421.557-.426.847-1.176.29-.756.289-1.744 0-.978-.284-1.711-.283-.738-.841-1.147-.556-.415-1.375-.415-.852 0-1.42.437-.562.432-.847 1.177a4.7 4.7 0 0 0-.278 1.659q0 .931.284 1.693.29.756.852 1.204.569.444 1.409.444m6.461 1.022v-8.727h1.341v8.727zm.682-10.182a.96.96 0 0 1-.677-.267.86.86 0 0 1-.278-.642.86.86 0 0 1 .278-.642.96.96 0 0 1 .677-.267q.391 0 .67.267a.85.85 0 0 1 .284.642q0 .375-.284.642a.93.93 0 0 1-.67.267m4.455 4.932v5.25h-1.34v-8.727h1.295v1.364h.114q.306-.666.931-1.069.626-.409 1.614-.409.887 0 1.551.364a2.45 2.45 0 0 1 1.034 1.091q.37.727.37 1.841v5.545H183.2v-5.454q0-1.029-.534-1.603-.534-.579-1.466-.579-.642 0-1.148.278a2 2 0 0 0-.79.813q-.29.534-.29 1.295m11.542 8.705q-.972 0-1.671-.25a3.6 3.6 0 0 1-1.165-.648 3.6 3.6 0 0 1-.733-.852l1.069-.75q.181.239.46.545.279.313.761.54.489.233 1.279.233 1.056 0 1.744-.511t.687-1.603v-1.772h-.113a7 7 0 0 1-.421.591q-.267.346-.772.619-.5.267-1.353.267-1.057 0-1.897-.5-.835-.5-1.324-1.455-.483-.954-.483-2.318 0-1.34.471-2.335.472-1 1.313-1.546.841-.55 1.943-.551.852 0 1.352.284.507.279.773.637.273.353.421.579h.136v-1.386h1.295v8.977q0 1.125-.511 1.83-.506.71-1.364 1.04a5.2 5.2 0 0 1-1.897.335m-.046-4.796q.807 0 1.364-.369.556-.369.846-1.062t.29-1.66q0-.942-.284-1.664-.284-.721-.841-1.131t-1.375-.409q-.852 0-1.42.432a2.63 2.63 0 0 0-.847 1.159 4.5 4.5 0 0 0-.278 1.613q0 .91.284 1.608.29.694.852 1.091.569.392 1.409.392m14.568-7.386v1.136h-4.522v-1.136zm-3.204-2.091h1.341v8.318q0 .568.165.853.17.277.431.375.267.09.563.09.222 0 .363-.022l.228-.046.272 1.205q-.135.051-.38.102-.245.057-.62.057a2.7 2.7 0 0 1-1.113-.244 2.2 2.2 0 0 1-.898-.745q-.352-.5-.352-1.261zm6.75 5.568v5.25h-1.341v-11.636h1.341v4.273h.113a2.47 2.47 0 0 1 .921-1.074q.62-.404 1.648-.404.891 0 1.562.358.67.353 1.04 1.086.375.726.375 1.852v5.545H212.9v-5.454q0-1.04-.54-1.608-.534-.574-1.483-.574-.659 0-1.182.278a2.04 2.04 0 0 0-.818.813q-.295.534-.295 1.295m8.112 5.25v-8.727h1.296v1.318h.09q.24-.648.864-1.051a2.54 2.54 0 0 1 1.409-.403q.149 0 .369.005.222.006.336.017v1.364a4 4 0 0 0-.313-.051 3 3 0 0 0-.505-.04q-.638 0-1.137.267a2 2 0 0 0-.784.727 1.97 1.97 0 0 0-.284 1.052v5.522zm9.233.182q-1.182 0-2.074-.562-.886-.563-1.386-1.574-.495-1.012-.495-2.364 0-1.364.495-2.381.5-1.017 1.386-1.579.892-.563 2.074-.563t2.068.563q.892.562 1.387 1.579.5 1.017.5 2.381 0 1.352-.5 2.364-.495 1.011-1.387 1.574-.886.562-2.068.562m0-1.204q.898 0 1.477-.461.58-.46.858-1.21.279-.75.279-1.625t-.279-1.631a2.74 2.74 0 0 0-.858-1.221q-.579-.466-1.477-.466t-1.477.466q-.58.466-.858 1.221a4.7 4.7 0 0 0-.279 1.631q0 .875.279 1.625.278.75.858 1.21t1.477.461m11.501-2.546v-5.159h1.341v8.727h-1.341v-1.477h-.09q-.307.664-.955 1.131-.648.46-1.636.46-.819 0-1.455-.358-.636-.363-1-1.091-.363-.733-.364-1.847v-5.545h1.341v5.455q0 .954.534 1.522.54.568 1.375.568.501 0 1.017-.255.524-.256.875-.784.358-.529.358-1.347m7.32 7.023q-.971 0-1.67-.25a3.5 3.5 0 0 1-1.165-.648 3.5 3.5 0 0 1-.733-.852l1.068-.75q.182.239.46.545.279.313.762.54.488.233 1.278.233 1.057 0 1.744-.511t.688-1.603v-1.772h-.114a7 7 0 0 1-.42.591q-.267.346-.773.619-.5.267-1.352.267a3.65 3.65 0 0 1-1.898-.5q-.835-.5-1.324-1.455-.483-.954-.483-2.318 0-1.34.472-2.335.472-1 1.312-1.546.841-.55 1.944-.551.852 0 1.352.284.505.279.773.637.272.353.42.579h.136v-1.386h1.296v8.977q0 1.125-.512 1.83-.505.71-1.363 1.04a5.2 5.2 0 0 1-1.898.335m-.045-4.796q.806 0 1.363-.369t.847-1.062.29-1.66q0-.942-.284-1.664-.285-.721-.841-1.131-.558-.41-1.375-.409-.853 0-1.421.432a2.6 2.6 0 0 0-.846 1.159 4.5 4.5 0 0 0-.279 1.613q0 .91.284 1.608.29.694.853 1.091.567.392 1.409.392m7.613-3.909v5.25h-1.341v-11.636h1.341v4.273h.114q.306-.677.92-1.074.62-.404 1.648-.404.892 0 1.563.358.67.353 1.039 1.086.375.726.375 1.852v5.545h-1.341v-5.454q0-1.04-.539-1.608-.534-.574-1.483-.574-.66 0-1.182.278a2.03 2.03 0 0 0-.818.813q-.296.534-.296 1.295m8.112 8.523v-12h1.296v1.386h.159q.148-.226.409-.579.267-.358.761-.637.501-.284 1.353-.284 1.102 0 1.943.551.841.552 1.312 1.563.472 1.012.472 2.386 0 1.387-.472 2.404-.472 1.011-1.306 1.568-.835.55-1.927.551-.84 0-1.346-.278-.506-.285-.779-.642a9 9 0 0 1-.42-.603h-.114v4.614zm1.319-7.636q0 .988.289 1.744.29.75.847 1.176.557.42 1.364.421.84 0 1.403-.444.569-.448.852-1.204.29-.762.29-1.693 0-.921-.284-1.659-.279-.745-.847-1.177-.562-.437-1.414-.437-.819 0-1.375.415-.558.409-.841 1.147-.285.733-.284 1.711m13.931.795v-5.159h1.341v8.727h-1.341v-1.477h-.09q-.307.664-.955 1.131-.648.46-1.636.46-.819 0-1.455-.358-.636-.363-1-1.091-.363-.733-.364-1.847v-5.545h1.341v5.455q0 .954.534 1.522.54.568 1.375.568.501 0 1.017-.255.524-.256.875-.784.358-.529.358-1.347m7.593-5.159v1.136h-4.523v-1.136zm-3.205-2.091h1.341v8.318q0 .568.165.853.17.277.432.375.267.09.562.09.222 0 .364-.022l.227-.046.273 1.205a3 3 0 0 1-.381.102 2.8 2.8 0 0 1-.619.057q-.568 0-1.114-.244a2.2 2.2 0 0 1-.897-.745q-.353-.5-.353-1.261zm9.904 10.818v-11.636h1.341v4.295h.113q.148-.226.409-.579.267-.358.762-.637.5-.284 1.352-.284 1.102 0 1.943.551.841.552 1.313 1.563.471 1.012.471 2.386 0 1.387-.471 2.404-.472 1.011-1.307 1.568-.835.55-1.926.551-.841 0-1.347-.278-.506-.285-.778-.642a9 9 0 0 1-.421-.603h-.159v1.341zm1.318-4.363q0 .988.29 1.744.29.75.846 1.176.557.42 1.364.421.84 0 1.403-.444.568-.448.853-1.204a4.7 4.7 0 0 0 .289-1.693q0-.921-.284-1.659-.278-.745-.846-1.177-.563-.437-1.415-.437-.819 0-1.375.415-.557.409-.841 1.147-.284.733-.284 1.711m8.988 7.636a3 3 0 0 1-.607-.057 1.6 1.6 0 0 1-.37-.102l.341-1.182q.489.125.864.091t.665-.335q.294-.295.539-.96l.25-.682-3.227-8.773h1.455l2.409 6.955h.091l2.409-6.955h1.454l-3.704 10q-.25.677-.62 1.119a2.3 2.3 0 0 1-.858.665 2.64 2.64 0 0 1-1.091.216M67.897 321.822v-8.727h1.296v1.318h.09q.24-.648.864-1.051a2.54 2.54 0 0 1 1.41-.403q.146 0 .369.005.221.006.335.017v1.364a4 4 0 0 0-.313-.051 3 3 0 0 0-.505-.04q-.637 0-1.137.267-.494.262-.784.727-.285.46-.284 1.052v5.522zm9.347.182q-1.262 0-2.176-.557a3.73 3.73 0 0 1-1.404-1.568q-.488-1.011-.488-2.352t.488-2.364q.495-1.028 1.375-1.602.886-.58 2.068-.58.682 0 1.347.228.665.227 1.21.738.546.505.87 1.341t.323 2.057v.568H74.13v-1.159h5.364a2.86 2.86 0 0 0-.296-1.318 2.23 2.23 0 0 0-.83-.915q-.533-.335-1.26-.335-.802 0-1.387.398a2.6 2.6 0 0 0-.892 1.022 3 3 0 0 0-.312 1.353v.772q0 .989.34 1.676.347.683.96 1.04.614.353 1.427.353.528 0 .954-.148.432-.153.745-.455.312-.306.483-.761l1.295.364a2.9 2.9 0 0 1-.687 1.159 3.35 3.35 0 0 1-1.194.772 4.4 4.4 0 0 1-1.596.273m8.949 0q-1.092 0-1.927-.551-.835-.557-1.306-1.568-.472-1.017-.472-2.404 0-1.375.472-2.386.471-1.011 1.312-1.563.841-.55 1.943-.551.853 0 1.347.284.5.279.761.637.267.353.415.579h.114v-4.295h1.34v11.636h-1.295v-1.341h-.159q-.148.239-.42.603-.273.357-.779.642-.506.278-1.346.278m.181-1.204q.807 0 1.364-.421.556-.426.847-1.176.29-.756.29-1.744 0-.978-.285-1.711-.284-.738-.84-1.147-.557-.415-1.376-.415-.852 0-1.42.437-.562.432-.847 1.177a4.7 4.7 0 0 0-.278 1.659q0 .931.284 1.693.29.756.852 1.204.57.444 1.41.444m11.96-2.546v-5.159h1.342v8.727h-1.341v-1.477h-.091q-.307.664-.955 1.131-.648.46-1.636.46-.818 0-1.455-.358-.636-.363-1-1.091-.363-.733-.363-1.847v-5.545h1.34v5.455q0 .954.535 1.522.54.568 1.375.568.5 0 1.017-.255.522-.256.875-.784.358-.529.358-1.347m7.343 3.75q-1.227 0-2.114-.579a3.8 3.8 0 0 1-1.363-1.597q-.477-1.017-.478-2.324 0-1.329.489-2.347.495-1.022 1.375-1.596.886-.58 2.068-.58.921 0 1.659.341.739.342 1.211.955.471.613.585 1.432h-1.341q-.154-.597-.682-1.057-.522-.466-1.409-.466-.784 0-1.375.409-.585.404-.915 1.142-.324.733-.324 1.722 0 1.011.319 1.761.323.75.909 1.165.591.415 1.386.415.523 0 .949-.182a1.95 1.95 0 0 0 1.142-1.341h1.341a3.1 3.1 0 0 1-1.739 2.369q-.727.358-1.693.358m5.392-.182v-8.727h1.341v8.727zm.682-10.182a.95.95 0 0 1-.676-.267.86.86 0 0 1-.279-.642q0-.375.279-.642a.95.95 0 0 1 .676-.267q.392 0 .67.267.284.267.284.642t-.284.642a.93.93 0 0 1-.67.267m4.456 4.932v5.25h-1.341v-8.727h1.295v1.364h.114q.307-.666.932-1.069.625-.409 1.613-.409.886 0 1.552.364a2.45 2.45 0 0 1 1.034 1.091q.369.727.369 1.841v5.545h-1.341v-5.454q0-1.029-.534-1.603-.534-.579-1.466-.579-.642 0-1.148.278a2 2 0 0 0-.789.813q-.29.534-.29 1.295m11.541 8.705q-.971 0-1.67-.25a3.5 3.5 0 0 1-1.165-.648 3.5 3.5 0 0 1-.733-.852l1.068-.75q.182.239.46.545.279.313.762.54.488.233 1.278.233 1.057 0 1.744-.511t.688-1.603v-1.772h-.114a7 7 0 0 1-.42.591q-.267.346-.773.619-.5.267-1.352.267a3.65 3.65 0 0 1-1.898-.5q-.835-.5-1.324-1.455-.483-.954-.483-2.318 0-1.34.472-2.335.472-1 1.312-1.546.842-.55 1.944-.551.852 0 1.352.284.505.279.773.637.272.353.42.579h.136v-1.386h1.296v8.977q0 1.125-.512 1.83-.505.71-1.363 1.04a5.2 5.2 0 0 1-1.898.335m-.045-4.796q.806 0 1.363-.369t.847-1.062.29-1.66q0-.942-.284-1.664-.285-.721-.841-1.131-.558-.41-1.375-.409-.853 0-1.421.432a2.6 2.6 0 0 0-.846 1.159 4.5 4.5 0 0 0-.279 1.613q0 .91.284 1.608.29.694.853 1.091.567.392 1.409.392m10.772 1.341v-8.727h1.296v1.364h.113a2.2 2.2 0 0 1 .881-1.086q.608-.392 1.46-.392.864 0 1.438.392.579.387.903 1.086h.091a2.54 2.54 0 0 1 1.006-1.074q.67-.404 1.608-.404 1.17 0 1.915.733.744.728.744 2.267v5.841h-1.341v-5.841q0-.966-.528-1.38a1.96 1.96 0 0 0-1.245-.415q-.92 0-1.426.557-.506.55-.506 1.397v5.682h-1.363v-5.977q0-.744-.483-1.199-.483-.46-1.244-.46-.524 0-.978.278a2.1 2.1 0 0 0-.727.773 2.3 2.3 0 0 0-.273 1.131v5.454zm16.475.205a3.5 3.5 0 0 1-1.506-.313 2.6 2.6 0 0 1-1.074-.914q-.398-.603-.398-1.455 0-.75.296-1.216.295-.471.79-.739.494-.267 1.091-.397a13 13 0 0 1 1.21-.216q.795-.103 1.29-.154.5-.056.727-.187.233-.13.233-.455v-.045q0-.841-.46-1.307-.455-.466-1.381-.466-.96 0-1.506.421-.545.42-.767.897l-1.273-.454q.342-.795.91-1.239a3.4 3.4 0 0 1 1.25-.625 5.2 5.2 0 0 1 1.34-.182q.422 0 .966.103.552.096 1.063.403.518.307.858.926.34.62.341 1.659v5.75h-1.341v-1.182h-.068a2.4 2.4 0 0 1-.455.608 2.6 2.6 0 0 1-.846.552q-.53.227-1.29.227m.204-1.205q.797 0 1.341-.312.551-.313.83-.807.284-.495.284-1.04v-1.227q-.085.102-.375.187-.285.08-.659.142-.37.057-.722.103-.346.04-.562.068a5 5 0 0 0-.978.221 1.7 1.7 0 0 0-.727.449q-.273.296-.273.807 0 .699.517 1.057.523.352 1.324.352m7.584-4.25v5.25h-1.341v-8.727h1.296v1.364h.113q.307-.666.932-1.069.626-.409 1.614-.409.887 0 1.551.364a2.45 2.45 0 0 1 1.034 1.091q.369.727.369 1.841v5.545h-1.341v-5.454q0-1.029-.534-1.603-.534-.579-1.466-.579-.642 0-1.147.278a2 2 0 0 0-.79.813q-.29.534-.29 1.295m13.519 1.682v-5.159h1.34v8.727h-1.34v-1.477h-.091q-.307.664-.955 1.131-.648.46-1.636.46-.819 0-1.455-.358-.636-.363-1-1.091-.363-.733-.363-1.847v-5.545h1.34v5.455q0 .954.535 1.522.539.568 1.375.568a2.3 2.3 0 0 0 1.017-.255q.522-.256.875-.784.358-.529.358-1.347m6.365 3.773a3.5 3.5 0 0 1-1.506-.313 2.6 2.6 0 0 1-1.074-.914q-.398-.603-.398-1.455 0-.75.296-1.216.295-.471.79-.739.494-.267 1.09-.397.602-.137 1.211-.216.795-.103 1.289-.154.5-.056.728-.187.233-.13.233-.455v-.045q0-.841-.461-1.307-.455-.466-1.38-.466-.96 0-1.506.421-.546.42-.767.897l-1.273-.454q.342-.795.909-1.239.575-.448 1.25-.625a5.2 5.2 0 0 1 1.341-.182q.422 0 .966.103.552.096 1.063.403.516.307.858.926.34.62.341 1.659v5.75h-1.341v-1.182h-.068a2.4 2.4 0 0 1-.455.608q-.318.324-.847.552-.528.227-1.289.227m.204-1.205q.795 0 1.341-.312.552-.313.83-.807.284-.495.284-1.04v-1.227q-.085.102-.375.187-.285.08-.659.142-.37.057-.722.103-.347.04-.562.068a5 5 0 0 0-.978.221 1.7 1.7 0 0 0-.727.449q-.273.296-.273.807 0 .699.517 1.057.523.352 1.324.352m7.584-10.636v11.636h-1.341v-11.636zm10.501 11.818q-1.227 0-2.113-.579a3.8 3.8 0 0 1-1.364-1.597q-.477-1.017-.477-2.324 0-1.329.488-2.347.495-1.022 1.375-1.596.887-.58 2.069-.58.92 0 1.659.341.738.342 1.21.955.471.613.585 1.432h-1.341q-.153-.597-.682-1.057-.522-.466-1.409-.466-.784 0-1.375.409-.585.404-.914 1.142-.324.733-.324 1.722 0 1.011.318 1.761.324.75.909 1.165.591.415 1.386.415.523 0 .949-.182t.722-.523.42-.818h1.341a3.1 3.1 0 0 1-.562 1.392 3.15 3.15 0 0 1-1.176.977q-.728.358-1.694.358m6.733-5.432v5.25h-1.341v-11.636h1.341v4.273h.114q.307-.677.92-1.074.62-.404 1.648-.404.892 0 1.563.358.67.353 1.039 1.086.375.726.375 1.852v5.545h-1.34v-5.454q0-1.04-.54-1.608-.534-.574-1.483-.574-.66 0-1.182.278a2.04 2.04 0 0 0-.818.813q-.296.534-.296 1.295m10.681 5.455a3.5 3.5 0 0 1-1.506-.313 2.6 2.6 0 0 1-1.074-.914q-.398-.603-.398-1.455 0-.75.296-1.216.295-.471.79-.739.494-.267 1.091-.397a13 13 0 0 1 1.21-.216q.795-.103 1.29-.154.5-.056.727-.187.233-.13.233-.455v-.045q0-.841-.46-1.307-.455-.466-1.381-.466-.96 0-1.506.421-.545.42-.767.897l-1.273-.454q.342-.795.91-1.239a3.4 3.4 0 0 1 1.25-.625 5.2 5.2 0 0 1 1.34-.182q.422 0 .966.103.552.096 1.063.403.517.307.858.926.34.62.341 1.659v5.75h-1.341v-1.182h-.068a2.4 2.4 0 0 1-.455.608 2.6 2.6 0 0 1-.846.552q-.53.227-1.29.227m.204-1.205q.797 0 1.341-.312.551-.313.83-.807.284-.495.284-1.04v-1.227q-.085.102-.375.187-.285.08-.659.142-.37.057-.722.103-.346.04-.562.068a5 5 0 0 0-.978.221 1.7 1.7 0 0 0-.727.449q-.273.296-.273.807 0 .699.517 1.057.523.352 1.324.352m6.243 1v-8.727h1.296v1.318h.091q.239-.648.863-1.051a2.54 2.54 0 0 1 1.409-.403q.148 0 .37.005.22.006.335.017v1.364a4 4 0 0 0-.313-.051 3 3 0 0 0-.505-.04q-.637 0-1.137.267a2 2 0 0 0-.784.727 1.97 1.97 0 0 0-.284 1.052v5.522zm10.296-8.727v1.136h-4.523v-1.136zm-3.205-2.091h1.341v8.318q0 .568.165.853.17.277.432.375.267.09.562.09.222 0 .364-.022l.227-.046.273 1.205a3 3 0 0 1-.381.102 2.8 2.8 0 0 1-.619.057q-.568 0-1.114-.244a2.2 2.2 0 0 1-.898-.745q-.352-.5-.352-1.261zm11.063 5.568v5.25h-1.341v-11.636h1.341v4.273h.113a2.47 2.47 0 0 1 .921-1.074q.62-.404 1.647-.404.893 0 1.563.358.67.353 1.04 1.086.375.726.375 1.852v5.545h-1.341v-5.454q0-1.04-.54-1.608-.534-.574-1.483-.574-.659 0-1.182.278a2.04 2.04 0 0 0-.818.813q-.295.534-.295 1.295m13.612 1.682v-5.159h1.341v8.727h-1.341v-1.477h-.091q-.307.664-.955 1.131-.647.46-1.636.46-.817 0-1.455-.358-.636-.363-1-1.091-.363-.733-.363-1.847v-5.545h1.341v5.455q0 .954.534 1.522.54.568 1.375.568a2.3 2.3 0 0 0 1.017-.255q.522-.256.875-.784.358-.529.358-1.347m5.138-1.682v5.25h-1.341v-8.727h1.295v1.364h.114q.306-.666.932-1.069.624-.409 1.613-.409.887 0 1.551.364.666.358 1.034 1.091.37.727.37 1.841v5.545h-1.341v-5.454q0-1.029-.534-1.603-.534-.579-1.466-.579-.642 0-1.148.278a2 2 0 0 0-.79.813q-.29.534-.289 1.295m11.814-3.477v1.136h-4.523v-1.136zm-3.205-2.091h1.341v8.318q0 .568.165.853.17.277.431.375.268.09.563.09.222 0 .364-.022l.227-.046.273 1.205a3 3 0 0 1-.381.102 2.8 2.8 0 0 1-.619.057q-.568 0-1.114-.244a2.2 2.2 0 0 1-.898-.745q-.352-.5-.352-1.261zm5.222 10.818v-8.727h1.34v8.727zm.681-10.182a.96.96 0 0 1-.676-.267.86.86 0 0 1-.278-.642.86.86 0 0 1 .278-.642.96.96 0 0 1 .676-.267q.393 0 .671.267a.85.85 0 0 1 .284.642q0 .375-.284.642a.94.94 0 0 1-.671.267m4.456 4.932v5.25h-1.341v-8.727h1.296v1.364h.114q.306-.666.931-1.069.625-.409 1.614-.409.887 0 1.551.364a2.45 2.45 0 0 1 1.034 1.091q.37.727.37 1.841v5.545h-1.341v-5.454q0-1.029-.534-1.603-.535-.579-1.466-.579-.642 0-1.148.278a2 2 0 0 0-.79.813q-.29.534-.29 1.295m11.542 8.705q-.972 0-1.671-.25a3.6 3.6 0 0 1-1.165-.648 3.6 3.6 0 0 1-.733-.852l1.069-.75q.181.239.46.545.278.313.761.54.489.233 1.279.233 1.056 0 1.744-.511t.687-1.603v-1.772h-.113a7 7 0 0 1-.421.591q-.267.346-.772.619-.501.267-1.353.267-1.056 0-1.897-.5-.836-.5-1.324-1.455-.483-.954-.483-2.318 0-1.34.471-2.335.472-1 1.313-1.546.84-.55 1.943-.551.852 0 1.352.284.506.279.773.637a9 9 0 0 1 .42.579h.137v-1.386h1.295v8.977q0 1.125-.511 1.83-.506.71-1.364 1.04a5.2 5.2 0 0 1-1.897.335m-.046-4.796q.807 0 1.364-.369t.846-1.062q.29-.694.29-1.66 0-.942-.284-1.664-.284-.721-.841-1.131t-1.375-.409q-.852 0-1.42.432a2.63 2.63 0 0 0-.847 1.159 4.5 4.5 0 0 0-.278 1.613q0 .91.284 1.608.29.694.852 1.091.568.392 1.409.392m13.341 1.546a3.5 3.5 0 0 1-1.506-.313 2.6 2.6 0 0 1-1.074-.914q-.397-.603-.397-1.455 0-.75.295-1.216.295-.471.79-.739a4.2 4.2 0 0 1 1.091-.397 13 13 0 0 1 1.21-.216q.795-.103 1.29-.154.5-.056.727-.187.233-.13.233-.455v-.045q0-.841-.46-1.307-.454-.466-1.381-.466-.96 0-1.505.421-.546.42-.768.897l-1.272-.454q.34-.795.909-1.239a3.4 3.4 0 0 1 1.25-.625 5.2 5.2 0 0 1 1.341-.182q.42 0 .966.103.55.096 1.062.403.517.307.858.926.34.62.341 1.659v5.75h-1.341v-1.182h-.068a2.4 2.4 0 0 1-.455.608 2.6 2.6 0 0 1-.846.552q-.528.227-1.29.227m.205-1.205q.795 0 1.34-.312.551-.313.83-.807.284-.495.284-1.04v-1.227q-.086.102-.375.187a6 6 0 0 1-.659.142q-.37.057-.722.103-.346.04-.562.068a5 5 0 0 0-.977.221q-.45.149-.728.449-.272.296-.272.807 0 .699.517 1.057.522.352 1.324.352m7.583-4.25v5.25h-1.341v-8.727h1.296v1.364h.114q.306-.666.931-1.069.625-.409 1.614-.409.887 0 1.551.364a2.45 2.45 0 0 1 1.034 1.091q.37.727.37 1.841v5.545h-1.341v-5.454q0-1.029-.534-1.603-.535-.579-1.466-.579-.642 0-1.148.278a2 2 0 0 0-.79.813q-.29.534-.29 1.295m11.314 5.432q-1.09 0-1.926-.551-.835-.557-1.307-1.568-.471-1.017-.471-2.404 0-1.375.471-2.386.472-1.011 1.313-1.563.84-.55 1.943-.551.852 0 1.347.284.5.279.761.637.267.353.415.579h.113v-4.295h1.341v11.636h-1.295v-1.341h-.159q-.148.239-.421.603-.273.357-.778.642-.506.278-1.347.278m.182-1.204q.807 0 1.364-.421.557-.426.846-1.176.29-.756.29-1.744 0-.978-.284-1.711-.284-.738-.841-1.147-.556-.415-1.375-.415-.852 0-1.42.437-.563.432-.847 1.177-.279.738-.278 1.659a4.8 4.8 0 0 0 .284 1.693q.29.756.852 1.204.568.444 1.409.444m-161.994 20.295v1.136h-4.523v-1.136zm-3.205-2.091h1.341v8.318q0 .568.165.853.17.277.432.375.267.09.562.09.222 0 .364-.022l.227-.046.273 1.205a3 3 0 0 1-.381.102 2.8 2.8 0 0 1-.619.057q-.568 0-1.114-.244a2.2 2.2 0 0 1-.897-.745q-.353-.5-.353-1.261zm6.75 5.568v5.25h-1.341v-11.636h1.341v4.273h.114q.306-.677.92-1.074.62-.404 1.648-.404.893 0 1.563.358.67.353 1.039 1.086.375.726.375 1.852v5.545h-1.341v-5.454q0-1.04-.539-1.608-.535-.574-1.483-.574-.66 0-1.182.278a2.03 2.03 0 0 0-.818.813q-.296.534-.296 1.295m11.772 5.432q-1.262 0-2.177-.557a3.74 3.74 0 0 1-1.403-1.568q-.489-1.011-.489-2.352t.489-2.364q.495-1.028 1.375-1.602.886-.58 2.068-.58.683 0 1.347.228a3.3 3.3 0 0 1 1.21.738q.545.505.869 1.341t.324 2.057v.568h-6.727v-1.159h5.364a2.86 2.86 0 0 0-.296-1.318 2.24 2.24 0 0 0-.829-.915q-.535-.335-1.262-.335-.801 0-1.386.398a2.6 2.6 0 0 0-.892 1.022 3 3 0 0 0-.313 1.353v.772q0 .989.341 1.676.346.683.96 1.04.614.353 1.427.353.528 0 .954-.148.432-.153.744-.455.314-.306.483-.761l1.296.364a2.9 2.9 0 0 1-.688 1.159 3.34 3.34 0 0 1-1.193.772 4.4 4.4 0 0 1-1.596.273m10.153-.182v-8.727h1.295v1.318h.091q.238-.648.864-1.051a2.54 2.54 0 0 1 1.409-.403q.148 0 .369.005.222.006.336.017v1.364a4 4 0 0 0-.313-.051 3 3 0 0 0-.506-.04q-.636 0-1.136.267-.495.261-.784.727a1.97 1.97 0 0 0-.284 1.052v5.522zm9.347.182q-1.262 0-2.177-.557a3.74 3.74 0 0 1-1.403-1.568q-.489-1.011-.489-2.352t.489-2.364q.495-1.028 1.375-1.602.886-.58 2.068-.58.683 0 1.347.228a3.3 3.3 0 0 1 1.21.738q.545.505.869 1.341t.324 2.057v.568h-6.727v-1.159h5.364a2.86 2.86 0 0 0-.296-1.318 2.24 2.24 0 0 0-.829-.915q-.535-.335-1.262-.335-.801 0-1.386.398a2.6 2.6 0 0 0-.892 1.022 3 3 0 0 0-.313 1.353v.772q0 .989.341 1.676.346.683.96 1.04.614.353 1.427.353.528 0 .954-.148.432-.153.744-.455.314-.306.483-.761l1.296.364a2.9 2.9 0 0 1-.688 1.159 3.34 3.34 0 0 1-1.193.772 4.4 4.4 0 0 1-1.596.273m7.63-.182-2.659-8.727h1.409l1.887 6.682h.09l1.864-6.682h1.432l1.841 6.659h.091l1.886-6.659h1.409l-2.659 8.727h-1.318l-1.909-6.704h-.137l-1.909 6.704zm14.272.182q-1.183 0-2.074-.562-.886-.563-1.387-1.574-.494-1.012-.494-2.364 0-1.364.494-2.381.5-1.017 1.387-1.579.892-.563 2.074-.563t2.068.563q.892.562 1.386 1.579.5 1.017.5 2.381 0 1.352-.5 2.364a3.77 3.77 0 0 1-1.386 1.574q-.887.562-2.068.562m0-1.204q.897 0 1.477-.461a2.7 2.7 0 0 0 .858-1.21q.278-.75.278-1.625t-.278-1.631a2.75 2.75 0 0 0-.858-1.221q-.58-.466-1.477-.466t-1.478.466q-.579.466-.858 1.221a4.7 4.7 0 0 0-.278 1.631q0 .875.278 1.625.279.75.858 1.21.58.46 1.478.461m6.001 1.022v-8.727h1.295v1.318h.091q.238-.648.864-1.051a2.54 2.54 0 0 1 1.409-.403q.148 0 .369.005.222.006.336.017v1.364a4 4 0 0 0-.313-.051 3 3 0 0 0-.506-.04q-.636 0-1.136.267-.495.261-.784.727a1.97 1.97 0 0 0-.284 1.052v5.522zm7.203-3.182-.023-1.659h.273l3.818-3.886h1.659l-4.068 4.114h-.113zm-1.25 3.182v-11.636h1.341v11.636zm5.546 0-3.41-4.318.955-.932 4.159 5.25z"/><defs><filter id="a" width="396.438" height="453.459" x=".115" y="2.594" color-interpolation-filters="sRGB" filterUnits="userSpaceOnUse"><feFlood flood-opacity="0" result="BackgroundImageFix"/><feColorMatrix in="SourceAlpha" result="hardAlpha" values="0 0 0 0 0 0 0 0 0 0 0 0 0 0 0 0 0 0 127 0"/><feOffset/><feGaussianBlur stdDeviation="8"/><feComposite in2="hardAlpha" operator="out"/><feColorMatrix values="0 0 0 0 0.933333 0 0 0 0 0.580392 0 0 0 0 0.254902 0 0 0 0.5 0"/><feBlend in2="BackgroundImageFix" result="effect1_dropShadow_2041_13300"/><feBlend in="SourceGraphic" in2="effect1_dropShadow_2041_13300" result="shape"/></filter></defs></svg>