<svg width="741" height="640" viewBox="0 0 741 640" fill="none" xmlns="http://www.w3.org/2000/svg">
<g opacity="0.03">
<path d="M507.82 222.555C517.497 206.428 546.525 174.174 585.23 174.174C633.611 174.174 701.345 222.555 740.05 222.555C711.021 219.33 647.158 239.972 623.935 348.346C594.906 483.813 507.82 609.604 314.296 580.575C385.255 532.194 519.432 400.598 488.468 261.26L159.477 38.707L188.505 154.822" stroke="#002880" stroke-width="17"/>
<path d="M430.411 319.314C435.693 419.674 321.135 514.392 207.858 570.588M207.858 570.588C155.126 596.749 102.672 616.659 62.7151 628.953L14.334 493.486L207.858 570.588Z" stroke="#0483FD" stroke-width="17"/>
<path d="M207.857 493.488L217.533 290.288M207.857 493.488C293.008 462.525 391.705 364.472 430.41 319.317M207.857 493.488L43.3613 280.612M217.533 290.288L430.41 319.317M217.533 290.288L43.3613 58.0586M217.533 290.288L43.3613 280.612M430.41 319.317L43.3613 58.0586M43.3613 58.0586V280.612" stroke="#0483FD" stroke-width="17"/>
<circle cx="149.798" cy="29.0287" r="29.0287" fill="#002880"/>
<circle cx="33.6849" cy="48.3822" r="29.0287" fill="#0483FD"/>
<circle cx="33.6849" cy="261.259" r="29.0287" fill="#0483FD"/>
<circle cx="207.857" cy="280.613" r="29.0287" fill="#0483FD"/>
<circle cx="207.857" cy="493.49" r="29.0287" fill="#0483FD"/>
</g>
</svg>
