<svg width="130" height="131" viewBox="0 0 130 131" fill="none" xmlns="http://www.w3.org/2000/svg">
<circle cx="65" cy="65.9658" r="65" fill="url(#paint0_linear_2224_338)"/>
<path d="M73.9234 61.5896C74.728 60.6884 74.6498 59.3055 73.7486 58.5009C72.8474 57.6963 71.4646 57.7746 70.6599 58.6757L61.875 68.5149L59.3401 65.6757C58.5354 64.7746 57.1526 64.6963 56.2514 65.5009C55.3502 66.3055 55.272 67.6884 56.0766 68.5896L60.2433 73.2562C60.6583 73.7211 61.2519 73.9868 61.875 73.9868C62.4981 73.9868 63.0917 73.7211 63.5067 73.2562L73.9234 61.5896Z" fill="white"/>
<path fill-rule="evenodd" clip-rule="evenodd" d="M65 34.6118C62.2656 34.6118 59.6547 35.506 55.4432 36.9484L53.3215 37.6747C49.001 39.1536 45.6666 40.295 43.2797 41.2647C42.0773 41.7532 41.0436 42.2263 40.2112 42.7097C39.4102 43.1749 38.6066 43.7551 38.0606 44.533C37.5209 45.3019 37.2419 46.2471 37.0665 47.157C36.8842 48.103 36.7743 49.2378 36.7034 50.5408C36.5625 53.1279 36.5625 56.6721 36.5625 61.2691V65.9408C36.5625 83.7355 50.0026 92.2671 57.9951 95.7584L58.0742 95.793C59.0652 96.226 59.9968 96.6331 61.0672 96.9071C62.1973 97.1964 63.398 97.3201 65 97.3201C66.602 97.3201 67.8027 97.1964 68.9328 96.9071C70.0032 96.6331 70.9347 96.2261 71.9257 95.793L72.0049 95.7585C79.9974 92.2671 93.4375 83.7355 93.4375 65.9408V61.2696C93.4375 56.6723 93.4375 53.128 93.2966 50.5408C93.2257 49.2378 93.1158 48.103 92.9335 47.157C92.7581 46.2471 92.4791 45.3019 91.9394 44.533C91.3934 43.7551 90.5898 43.1749 89.7888 42.7097C88.9564 42.2263 87.9227 41.7532 86.7203 41.2647C84.3334 40.295 80.999 39.1536 76.6785 37.6747L74.5568 36.9484C70.3453 35.506 67.7344 34.6118 65 34.6118ZM56.4851 41.216C61.1942 39.6041 63.0816 38.9868 65 38.9868C66.9184 38.9868 68.8058 39.6041 73.5149 41.216L75.1856 41.7879C79.5973 43.2981 82.8147 44.4003 85.0737 45.318C86.2012 45.7761 87.0182 46.1599 87.5917 46.4929C87.8748 46.6574 88.0699 46.793 88.2001 46.8989C88.3105 46.9887 88.3526 47.0395 88.3587 47.047C88.3643 47.0561 88.4006 47.1166 88.4517 47.26C88.51 47.4237 88.5746 47.6583 88.6375 47.9849C88.7649 48.6459 88.8614 49.5539 88.9281 50.7787C89.0617 53.2321 89.0625 56.657 89.0625 61.3479V65.9408C89.0625 81.0348 77.7753 88.4636 70.2535 91.7493C69.1701 92.2226 68.5444 92.4905 67.8478 92.6688C67.1826 92.8391 66.3708 92.9451 65 92.9451C63.6292 92.9451 62.8174 92.8391 62.1522 92.6688C61.4556 92.4905 60.8299 92.2226 59.7465 91.7493C52.2247 88.4636 40.9375 81.0348 40.9375 65.9408V61.3479C40.9375 56.657 40.9383 53.2321 41.0719 50.7787C41.1386 49.5539 41.2351 48.6459 41.3625 47.9849C41.4254 47.6583 41.49 47.4237 41.5483 47.26C41.5994 47.1167 41.6356 47.0561 41.6413 47.047C41.6473 47.0396 41.6894 46.9887 41.7999 46.8989C41.9301 46.793 42.1252 46.6574 42.4083 46.4929C42.9818 46.1599 43.7988 45.7761 44.9263 45.318C47.1853 44.4003 50.4027 43.2981 54.8144 41.7879L56.4851 41.216Z" fill="white"/>
<defs>
<linearGradient id="paint0_linear_2224_338" x1="0.0202345" y1="65.9295" x2="130.051" y2="65.9295" gradientUnits="userSpaceOnUse">
<stop stop-color="#8159EB"/>
<stop offset="0.855769" stop-color="#532ED6"/>
</linearGradient>
</defs>
</svg>
