<svg width="130" height="131" viewBox="0 0 130 131" fill="none" xmlns="http://www.w3.org/2000/svg">
<circle cx="65" cy="65.9658" r="65" fill="url(#paint0_linear_2224_344)"/>
<path fill-rule="evenodd" clip-rule="evenodd" d="M77.8156 36.8612L78.0095 36.9132C81.216 37.7723 83.7571 38.4532 85.7557 39.1752C87.8001 39.9137 89.4673 40.7585 90.8407 42.0448C92.8406 43.918 94.2401 46.342 94.8623 49.0106C95.2896 50.8431 95.1877 52.7093 94.8051 54.8491C94.431 56.941 93.7501 59.4821 92.8908 62.6888L91.3291 68.5172C90.47 71.7236 89.7892 74.2645 89.0672 76.2631C88.3287 78.3076 87.4838 79.9747 86.1975 81.3481C84.384 83.2844 82.054 84.6579 79.4857 85.308C78.7354 87.0282 77.6397 88.5858 76.2573 89.8805C74.8839 91.1668 73.2168 92.0116 71.1724 92.7502C69.1738 93.4721 66.6328 94.153 63.4264 95.0121L63.2326 95.0641C60.026 95.9233 57.4848 96.6042 55.3929 96.9783C53.2531 97.3609 51.3869 97.4628 49.5544 97.0355C46.8858 96.4133 44.4618 95.0138 42.5887 93.0139C41.3023 91.6405 40.4575 89.9733 39.719 87.9289C38.997 85.9303 38.3161 83.3892 37.457 80.1827L35.8952 74.3543C35.036 71.1478 34.3552 68.6068 33.9811 66.5149C33.5985 64.3751 33.4965 62.5089 33.9238 60.6763C34.546 58.0078 35.9456 55.5837 37.9455 53.7106C39.3189 52.4243 40.986 51.5795 43.0304 50.841C45.0291 50.119 47.5701 49.4381 50.7766 48.579L50.8736 48.553C51.6449 48.3463 52.3748 48.1511 53.0657 47.9685C54.2079 43.8877 55.2131 41.003 57.172 38.9115C59.0451 36.9116 61.4692 35.512 64.1377 34.8898C65.9703 34.4625 67.8365 34.5644 69.9762 34.9471C72.0681 35.3211 74.6091 36.002 77.8156 36.8612ZM51.7438 52.8491C48.5563 53.7035 46.2722 54.3216 44.5169 54.9557C42.7394 55.5978 41.6957 56.1924 40.9362 56.9038C39.5679 58.1854 38.6103 59.844 38.1846 61.6698C37.9483 62.6832 37.9551 63.8844 38.2878 65.7448C38.6253 67.632 39.2562 69.9939 40.1471 73.3189L41.6569 78.9535C42.5479 82.2785 43.1824 84.6394 43.8337 86.4425C44.4758 88.22 45.0705 89.2637 45.7818 90.0232C47.0634 91.3915 48.722 92.3491 50.5478 92.7748C51.5612 93.0111 52.7624 93.0043 54.6228 92.6716C56.51 92.3341 58.8719 91.7032 62.1969 90.8122C65.5219 89.9213 67.8828 89.2868 69.686 88.6354C71.4635 87.9933 72.5071 87.3987 73.2666 86.6873C73.6679 86.3115 74.0338 85.9034 74.3614 85.4682C73.8392 85.3946 73.3018 85.3006 72.7458 85.19C70.7863 84.8004 68.4325 84.1697 65.5274 83.3913L65.3599 83.3464C62.1534 82.4872 59.6124 81.8064 57.6138 81.0844C55.5694 80.3459 53.9022 79.501 52.5288 78.2147C50.5289 76.3416 49.1294 73.9175 48.5072 71.249C48.0799 69.4164 48.1818 67.5502 48.5644 65.4105C48.9385 63.3186 49.6194 60.7776 50.4786 57.5711L51.7438 52.8491ZM69.2061 39.2538C67.3457 38.9211 66.1446 38.9142 65.1312 39.1505C63.3053 39.5762 61.6467 40.5338 60.3651 41.9022C59.0932 43.2603 58.3104 45.3583 56.9491 50.3421C56.7279 51.152 56.494 52.025 56.2403 52.9719L54.7305 58.6065C53.8395 61.9315 53.2086 64.2933 52.8711 66.1806C52.5385 68.041 52.5316 69.2421 52.7679 70.2555C53.1936 72.0814 54.1512 73.74 55.5195 75.0215C56.279 75.7329 57.3227 76.3275 59.1002 76.9696C60.9033 77.621 63.2642 78.2555 66.5892 79.1464C69.5801 79.9478 71.7966 80.5406 73.599 80.899C75.3934 81.2558 76.6112 81.3434 77.6093 81.2203C77.8264 81.1935 78.035 81.1564 78.2383 81.109C80.0642 80.6833 81.7227 79.7257 83.0043 78.3574C83.7157 77.5979 84.3103 76.5542 84.9524 74.7767C85.6038 72.9736 86.2383 70.6127 87.1292 67.2877L88.639 61.6531C89.53 58.3281 90.1609 55.9662 90.4984 54.079C90.831 52.2186 90.8379 51.0174 90.6016 50.004C90.1759 48.1782 89.2183 46.5196 87.8499 45.238C87.0904 44.5267 86.0468 43.932 84.2693 43.2899C82.4662 42.6386 80.1053 42.0041 76.7802 41.1131C73.4552 40.2222 71.0934 39.5912 69.2061 39.2538ZM62.2362 59.5665C62.5489 58.3995 63.7484 57.707 64.9153 58.0197L79.0017 61.7941C80.1687 62.1068 80.8612 63.3063 80.5485 64.4732C80.2358 65.6402 79.0364 66.3327 77.8694 66.02L63.783 62.2456C62.616 61.9329 61.9235 60.7334 62.2362 59.5665ZM59.9704 68.0181C60.283 66.8511 61.4825 66.1586 62.6495 66.4713L71.1013 68.736C72.2683 69.0487 72.9608 70.2481 72.6481 71.4151C72.3355 72.5821 71.136 73.2746 69.969 72.9619L61.5172 70.6972C60.3502 70.3845 59.6577 69.1851 59.9704 68.0181Z" fill="white"/>
<defs>
<linearGradient id="paint0_linear_2224_344" x1="-0.0214819" y1="65.8099" x2="130.009" y2="65.8099" gradientUnits="userSpaceOnUse">
<stop stop-color="#3CB9F7"/>
<stop offset="1" stop-color="#532ED6"/>
</linearGradient>
</defs>
</svg>
