<svg width="130" height="131" viewBox="0 0 130 131" fill="none" xmlns="http://www.w3.org/2000/svg">
<circle cx="65" cy="65.9658" r="65" fill="url(#paint0_linear_2224_341)"/>
<path fill-rule="evenodd" clip-rule="evenodd" d="M85.2862 34.6118C84.0238 34.6117 82.8664 34.6115 81.9248 34.7381C80.888 34.8775 79.7921 35.2055 78.8908 36.1068C77.9895 37.0081 77.6615 38.104 77.5221 39.1408C77.3956 40.0823 77.3957 41.2398 77.3958 42.5021V80.6799C77.3957 81.9422 77.3956 83.0997 77.5221 84.0412C77.6615 85.078 77.9895 86.1739 78.8908 87.0752C79.7921 87.9765 80.888 88.3045 81.9248 88.4439C82.8664 88.5705 84.0238 88.5703 85.2862 88.5702H85.5472C86.8096 88.5703 87.967 88.5705 88.9085 88.4439C89.9454 88.3045 91.0412 87.9765 91.9425 87.0752C92.8439 86.1739 93.1718 85.078 93.3112 84.0412C93.4378 83.0997 93.4377 81.9422 93.4375 80.6798V42.5022C93.4377 41.2398 93.4378 40.0824 93.3112 39.1408C93.1718 38.104 92.8439 37.0081 91.9425 36.1068C91.0412 35.2055 89.9454 34.8775 88.9085 34.7381C87.967 34.6115 86.8096 34.6117 85.5472 34.6118H85.2862ZM81.9916 39.1964L81.9845 39.2004L81.9804 39.2075C81.9775 39.2132 81.9728 39.2229 81.9667 39.2376C81.9406 39.3011 81.896 39.4421 81.8581 39.7238C81.7755 40.3384 81.7709 41.1959 81.7709 42.6327V80.5493C81.7709 81.9861 81.7755 82.8436 81.8581 83.4582C81.896 83.7399 81.9406 83.8809 81.9667 83.9444C81.9728 83.9592 81.9775 83.9688 81.9804 83.9745L81.9844 83.9816L81.9916 83.9856C81.9939 83.9868 81.997 83.9884 82.0009 83.9902C82.0062 83.9927 82.0131 83.9958 82.0216 83.9993C82.0851 84.0254 82.2262 84.07 82.5078 84.1079C83.1224 84.1905 83.9799 84.1952 85.4167 84.1952C86.8535 84.1952 87.711 84.1905 88.3256 84.1079C88.6072 84.07 88.7483 84.0254 88.8118 83.9993C88.8265 83.9932 88.8362 83.9885 88.8418 83.9856L88.8489 83.9816L88.8529 83.9745C88.8559 83.9688 88.8606 83.9592 88.8666 83.9444C88.8928 83.8809 88.9374 83.7399 88.9752 83.4582C89.0579 82.8436 89.0625 81.9861 89.0625 80.5493V42.6327C89.0625 41.1959 89.0579 40.3384 88.9752 39.7238C88.9374 39.4421 88.8928 39.3011 88.8666 39.2376C88.8606 39.2229 88.8559 39.2132 88.8529 39.2075L88.8489 39.2004L88.8418 39.1964C88.8362 39.1935 88.8265 39.1888 88.8118 39.1827C88.7483 39.1566 88.6072 39.112 88.3256 39.0741C87.711 38.9915 86.8535 38.9868 85.4167 38.9868C83.9799 38.9868 83.1224 38.9915 82.5078 39.0741C82.2262 39.112 82.0851 39.1566 82.0216 39.1827C82.0069 39.1888 81.9972 39.1935 81.9916 39.1964Z" fill="white"/>
<path fill-rule="evenodd" clip-rule="evenodd" d="M64.8695 43.3618H65.1305C66.3929 43.3617 67.5503 43.3615 68.4919 43.4881C69.5287 43.6275 70.6246 43.9555 71.5259 44.8568C72.4272 45.7581 72.7552 46.854 72.8946 47.8908C73.0211 48.8323 73.021 49.9897 73.0209 51.2521V80.6798C73.021 81.9422 73.0211 83.0997 72.8946 84.0412C72.7552 85.078 72.4272 86.1739 71.5259 87.0752C70.6246 87.9765 69.5287 88.3045 68.4919 88.4439C67.5504 88.5705 66.393 88.5703 65.1307 88.5702H64.8695C63.6072 88.5703 62.4497 88.5705 61.5082 88.4439C60.4713 88.3045 59.3755 87.9765 58.4742 87.0752C57.5728 86.1739 57.2449 85.078 57.1055 84.0412C56.9789 83.0997 56.979 81.9422 56.9792 80.6799V51.2522C56.979 49.9898 56.9789 48.8323 57.1055 47.8908C57.2449 46.854 57.5728 45.7581 58.4742 44.8568C59.3755 43.9555 60.4713 43.6275 61.5082 43.4881C62.4497 43.3615 63.6071 43.3617 64.8695 43.3618ZM61.5678 47.9504L61.5749 47.9464L61.5681 83.9818L61.5638 83.9745C61.5608 83.9688 61.5561 83.9592 61.5501 83.9444C61.5239 83.8809 61.4793 83.7399 61.4415 83.4582C61.3588 82.8436 61.3542 81.9861 61.3542 80.5493V51.3827C61.3542 49.9459 61.3588 49.0884 61.4415 48.4738C61.4793 48.1921 61.5239 48.0511 61.5501 47.9876C61.5561 47.9729 61.5608 47.9632 61.5638 47.9575L61.5678 47.9504ZM61.5681 83.9818L61.5749 47.9464L61.586 47.941L61.6049 47.9327C61.6684 47.9066 61.8095 47.862 62.0911 47.8241C62.7057 47.7415 63.5632 47.7368 65 47.7368C66.4368 47.7368 67.2943 47.7415 67.9089 47.8241C68.1905 47.862 68.3316 47.9066 68.3951 47.9327C68.4098 47.9388 68.4195 47.9435 68.4251 47.9464L68.4322 47.9504L68.4363 47.9575C68.4392 47.9632 68.4439 47.9729 68.45 47.9876C68.4761 48.0511 68.5207 48.1921 68.5586 48.4738C68.6412 49.0884 68.6459 49.9459 68.6459 51.3827V80.5493C68.6459 81.9861 68.6412 82.8436 68.5586 83.4582C68.5207 83.7399 68.4761 83.8809 68.45 83.9444C68.4439 83.9592 68.4392 83.9688 68.4363 83.9745L68.4322 83.9816L68.4251 83.9856C68.4214 83.9875 68.4159 83.9902 68.4084 83.9936C68.4045 83.9953 68.4001 83.9972 68.3951 83.9993C68.3316 84.0254 68.1905 84.07 67.9089 84.1079C67.2943 84.1905 66.4368 84.1952 65 84.1952C63.5632 84.1952 62.7057 84.1905 62.0911 84.1079C61.8095 84.07 61.6684 84.0254 61.6049 83.9993C61.5902 83.9932 61.5805 83.9885 61.5749 83.9856L61.5681 83.9818Z" fill="white"/>
<path fill-rule="evenodd" clip-rule="evenodd" d="M44.4528 55.0285C43.1905 55.0283 42.033 55.0282 41.0915 55.1548C40.0547 55.2942 38.9588 55.6222 38.0575 56.5235C37.1562 57.4248 36.8282 58.5207 36.6888 59.5575C36.5622 60.499 36.5624 61.6564 36.5625 62.9188V80.6799C36.5624 81.9422 36.5622 83.0997 36.6888 84.0412C36.8282 85.078 37.1562 86.1739 38.0575 87.0752C38.9588 87.9765 40.0547 88.3045 41.0915 88.4439C42.033 88.5705 43.1905 88.5703 44.4529 88.5702H44.7139C45.9762 88.5703 47.1337 88.5705 48.0752 88.4439C49.112 88.3045 50.2079 87.9765 51.1092 87.0752C52.0105 86.1739 52.3385 85.078 52.4779 84.0412C52.6045 83.0997 52.6043 81.9422 52.6042 80.6799V62.9188C52.6043 61.6565 52.6045 60.499 52.4779 59.5575C52.3385 58.5207 52.0105 57.4248 51.1092 56.5235C50.2079 55.6222 49.112 55.2942 48.0752 55.1548C47.1337 55.0282 45.9763 55.0283 44.7139 55.0285H44.4528ZM41.1582 59.6131L41.1511 59.6171L41.1471 59.6242C41.1442 59.6298 41.1395 59.6395 41.1334 59.6542C41.1073 59.7178 41.0627 59.8588 41.0248 60.1404C40.9422 60.755 40.9375 61.6126 40.9375 63.0493V80.5493C40.9375 81.9861 40.9422 82.8436 41.0248 83.4582C41.0627 83.7399 41.1073 83.8809 41.1334 83.9444C41.1395 83.9592 41.1442 83.9688 41.1471 83.9745L41.15 83.9797L41.1582 83.9856C41.1639 83.9885 41.1735 83.9932 41.1883 83.9993C41.2518 84.0254 41.3928 84.07 41.6745 84.1079C42.2891 84.1905 43.1466 84.1952 44.5834 84.1952C46.0201 84.1952 46.8776 84.1905 47.4922 84.1079C47.7739 84.07 47.9149 84.0254 47.9785 83.9993C47.9932 83.9932 48.0028 83.9885 48.0085 83.9856L48.0156 83.9816L48.0196 83.9745L48.026 83.9612L48.0333 83.9444C48.0594 83.8809 48.104 83.7399 48.1419 83.4582C48.2245 82.8436 48.2292 81.9861 48.2292 80.5493V63.0493C48.2292 61.6126 48.2245 60.755 48.1419 60.1404C48.104 59.8588 48.0594 59.7178 48.0333 59.6542C48.0273 59.6395 48.0225 59.6298 48.0196 59.6242L48.0156 59.6171L48.0085 59.6131C48.0028 59.6102 47.9932 59.6054 47.9785 59.5994C47.9149 59.5732 47.7739 59.5286 47.4923 59.4908C46.8776 59.4081 46.0201 59.4035 44.5834 59.4035C43.1466 59.4035 42.2891 59.4081 41.6745 59.4908C41.3928 59.5286 41.2518 59.5732 41.1883 59.5994C41.1735 59.6054 41.1639 59.6102 41.1582 59.6131Z" fill="white"/>
<path d="M38.75 92.9452C37.5419 92.9452 36.5625 93.9246 36.5625 95.1327C36.5625 96.3408 37.5419 97.3202 38.75 97.3202H91.25C92.4581 97.3202 93.4375 96.3408 93.4375 95.1327C93.4375 93.9246 92.4581 92.9452 91.25 92.9452H38.75Z" fill="white"/>
<defs>
<linearGradient id="paint0_linear_2224_341" x1="0" y1="65.8099" x2="130.03" y2="65.8099" gradientUnits="userSpaceOnUse">
<stop stop-color="#6EF5FF"/>
<stop offset="1" stop-color="#3787F0"/>
</linearGradient>
</defs>
</svg>
