<svg width="130" height="131" viewBox="0 0 130 131" fill="none" xmlns="http://www.w3.org/2000/svg">
<circle cx="65" cy="65.9658" r="65" fill="url(#paint0_linear_2224_347)"/>
<path fill-rule="evenodd" clip-rule="evenodd" d="M44.5833 34.6118C45.7915 34.6118 46.7708 35.5912 46.7708 36.7993V63.0493C46.7708 68.6109 46.7755 72.562 47.1785 75.5593C47.573 78.4938 48.3129 80.1844 49.5472 81.4188C50.7816 82.6531 52.4722 83.393 55.4066 83.7875C58.404 84.1905 62.3551 84.1951 67.9167 84.1951H94.1667C95.3748 84.1951 96.3542 85.1745 96.3542 86.3826C96.3542 87.5908 95.3748 88.5701 94.1667 88.5701H87.6042V95.1326C87.6042 96.3408 86.6248 97.3201 85.4167 97.3201C84.2085 97.3201 83.2292 96.3408 83.2292 95.1326V88.5701H67.7521C62.392 88.5702 58.1464 88.5702 54.8237 88.1235C51.4041 87.6638 48.6364 86.6951 46.4536 84.5124C44.2709 82.3296 43.3022 79.5619 42.8425 76.1423C42.3957 72.8196 42.3958 68.574 42.3958 63.2139L42.3958 47.7368H35.8333C34.6252 47.7368 33.6458 46.7574 33.6458 45.5493C33.6458 44.3412 34.6252 43.3618 35.8333 43.3618H42.3958V36.7993C42.3958 35.5912 43.3752 34.6118 44.5833 34.6118ZM74.5934 48.1444C71.596 47.7415 67.6449 47.7368 62.0833 47.7368H53.3333C52.1252 47.7368 51.1458 46.7574 51.1458 45.5493C51.1458 44.3412 52.1252 43.3618 53.3333 43.3618L62.2479 43.3618C67.608 43.3618 71.8536 43.3617 75.1763 43.8085C78.5959 44.2682 81.3636 45.2369 83.5464 47.4196C85.7291 49.6023 86.6978 52.3701 87.1575 55.7897C87.6042 59.1124 87.6042 63.358 87.6042 68.7181V77.6326C87.6042 78.8408 86.6248 79.8201 85.4167 79.8201C84.2085 79.8201 83.2292 78.8408 83.2292 77.6326V68.8826C83.2292 63.3211 83.2245 59.37 82.8215 56.3726C82.427 53.4382 81.6871 51.7476 80.4528 50.5132C79.2184 49.2788 77.5278 48.539 74.5934 48.1444ZM63.3977 53.5701H66.6023C68.5415 53.57 70.2124 53.5699 71.5504 53.7498C72.9843 53.9426 74.3588 54.3774 75.4737 55.4923C76.5886 56.6071 77.0234 57.9817 77.2162 59.4156C77.396 60.7536 77.3959 62.4245 77.3958 64.3637V67.5683C77.3959 69.5075 77.396 71.1783 77.2162 72.5164C77.0234 73.9503 76.5886 75.3248 75.4737 76.4397C74.3588 77.5546 72.9843 77.9893 71.5504 78.1821C70.2124 78.362 68.5415 78.3619 66.6023 78.3618H63.3977C61.4585 78.3619 59.7876 78.362 58.4496 78.1821C57.0157 77.9893 55.6412 77.5546 54.5263 76.4397C53.4114 75.3248 52.9766 73.9503 52.7838 72.5164C52.604 71.1783 52.6041 69.5075 52.6042 67.5683V64.3637C52.6041 62.4245 52.604 60.7536 52.7838 59.4156C52.9766 57.9817 53.4114 56.6071 54.5263 55.4923C55.6412 54.3774 57.0157 53.9426 58.4496 53.7498C59.7876 53.5699 61.4585 53.57 63.3977 53.5701ZM59.0326 58.0858C58.0838 58.2134 57.7864 58.4193 57.6199 58.5858C57.4533 58.7524 57.2474 59.0498 57.1198 59.9986C56.9838 61.0103 56.9792 62.3834 56.9792 64.5076V67.4243C56.9792 69.5485 56.9838 70.9217 57.1198 71.9334C57.2474 72.8822 57.4533 73.1796 57.6199 73.3461C57.7864 73.5126 58.0838 73.7186 59.0326 73.8461C60.0443 73.9822 61.4174 73.9868 63.5417 73.9868H66.4583C68.5826 73.9868 69.9557 73.9822 70.9674 73.8461C71.9162 73.7186 72.2136 73.5126 72.3801 73.3461C72.5466 73.1796 72.7526 72.8822 72.8802 71.9334C73.0162 70.9217 73.0208 69.5485 73.0208 67.4243V64.5076C73.0208 62.3834 73.0162 61.0103 72.8802 59.9986C72.7526 59.0498 72.5466 58.7524 72.3801 58.5858C72.2136 58.4193 71.9162 58.2134 70.9674 58.0858C69.9557 57.9498 68.5826 57.9451 66.4583 57.9451H63.5417C61.4174 57.9451 60.0443 57.9498 59.0326 58.0858Z" fill="white"/>
<defs>
<linearGradient id="paint0_linear_2224_347" x1="-5.16577" y1="65.9295" x2="132.603" y2="65.9295" gradientUnits="userSpaceOnUse">
<stop stop-color="#0483FD"/>
<stop offset="1" stop-color="#003799"/>
</linearGradient>
</defs>
</svg>
