<svg width="70" height="71" viewBox="0 0 70 71" fill="none" xmlns="http://www.w3.org/2000/svg">
<rect y="0.96582" width="70" height="70" rx="10" fill="#0483FD"/>
<path d="M34.9999 58.3617C32.6458 58.3617 30.3958 57.6741 28.7083 56.4033L19.7499 49.7158C17.3749 47.945 15.5208 44.2575 15.5208 41.2992V25.7992C15.5208 22.5908 17.8749 19.1742 20.8958 18.0492L31.2916 14.1533C33.3541 13.3825 36.6041 13.3825 38.6666 14.1533L49.0833 18.0492C52.1041 19.1742 54.4583 22.5908 54.4583 25.7992V32.945C54.4583 33.7992 53.7499 34.5075 52.8958 34.5075C52.0416 34.5075 51.3333 33.7992 51.3333 32.945V25.7992C51.3333 23.9033 49.7708 21.6533 47.9791 20.9658L37.5833 17.07C36.2083 16.5492 33.7708 16.5492 32.3958 17.07L21.9999 20.9867C20.2083 21.6533 18.6458 23.9033 18.6458 25.82V41.2992C18.6458 43.2783 20.0416 46.0492 21.6041 47.2158L30.5624 53.9033C31.7083 54.7575 33.3124 55.2367 34.9791 55.2367C35.8333 55.2367 36.5416 55.945 36.5416 56.7992C36.5416 57.6533 35.8541 58.3617 34.9999 58.3617Z" fill="white"/>
<path d="M43.3333 54.195C37.875 54.195 33.4375 49.7575 33.4375 44.2992C33.4375 38.8408 37.875 34.4033 43.3333 34.4033C48.7917 34.4033 53.2292 38.8408 53.2292 44.2992C53.2292 49.7575 48.7917 54.195 43.3333 54.195ZM43.3333 37.5492C39.6042 37.5492 36.5625 40.5908 36.5625 44.32C36.5625 48.0492 39.6042 51.0908 43.3333 51.0908C47.0625 51.0908 50.1042 48.0492 50.1042 44.32C50.1042 40.5908 47.0625 37.5492 43.3333 37.5492Z" fill="white"/>
<path d="M53.7501 56.7993C53.6042 56.7993 53.4792 56.7785 53.3334 56.7576C53.2084 56.7368 53.0834 56.6951 52.9584 56.6326C52.8334 56.591 52.7084 56.5285 52.5834 56.4451C52.4792 56.3618 52.3751 56.2785 52.2709 56.1951C51.8959 55.7993 51.6667 55.2576 51.6667 54.716C51.6667 54.4451 51.7292 54.1743 51.8334 53.9243C51.9376 53.6743 52.0834 53.4451 52.2709 53.2368C53.0417 52.466 54.4584 52.466 55.2292 53.2368C55.4167 53.4451 55.5626 53.6743 55.6667 53.9243C55.7709 54.1743 55.8334 54.4451 55.8334 54.716C55.8334 55.2576 55.6042 55.7993 55.2292 56.1951C54.8334 56.5701 54.2917 56.7993 53.7501 56.7993Z" fill="white"/>
</svg>
