<svg width="70" height="71" viewBox="0 0 70 71" fill="none" xmlns="http://www.w3.org/2000/svg">
<rect y="0.96582" width="70" height="70" rx="10" fill="#0483FD"/>
<path d="M38.6667 47.9452H31.3125C29.0208 47.9452 27.2083 46.8201 26.1875 44.7785L24.3333 41.0493C23.8958 40.1535 23 39.6118 22 39.6118H14.125C13.2708 39.6118 12.5625 38.9035 12.5625 38.0493C12.5625 37.1951 13.2708 36.4868 14.125 36.4868H22.0208C24.2083 36.4868 26.1667 37.6952 27.1458 39.6535L29 43.3827C29.4792 44.341 30.25 44.8202 31.3333 44.8202H38.6875C39.6875 44.8202 40.5833 44.2785 41.0208 43.3827L42.875 39.6535C43.8542 37.6952 45.8125 36.4868 48 36.4868H55.7917C56.6458 36.4868 57.3542 37.1951 57.3542 38.0493C57.3542 38.9035 56.6458 39.6118 55.7917 39.6118H48C47 39.6118 46.1042 40.1535 45.6667 41.0493L43.8125 44.7785C42.8125 46.7368 40.8542 47.9452 38.6667 47.9452Z" fill="white"/>
<path d="M49.5833 29.1948C45.2708 29.1948 41.7708 25.6948 41.7708 21.3823C41.7708 17.0698 45.2708 13.5698 49.5833 13.5698C53.8958 13.5698 57.3958 17.0698 57.3958 21.3823C57.3958 25.6948 53.8958 29.1948 49.5833 29.1948ZM49.5833 16.6948C46.9999 16.6948 44.8958 18.799 44.8958 21.3823C44.8958 23.9657 46.9999 26.0698 49.5833 26.0698C52.1666 26.0698 54.2708 23.9657 54.2708 21.3823C54.2708 18.799 52.1666 16.6948 49.5833 16.6948Z" fill="white"/>
<path d="M41.2501 58.3615H28.7501C17.4376 58.3615 12.6042 53.5282 12.6042 42.2157V29.7157C12.6042 18.4032 17.4376 13.5698 28.7501 13.5698H39.1667C40.0209 13.5698 40.7292 14.2782 40.7292 15.1323C40.7292 15.9865 40.0209 16.6948 39.1667 16.6948H28.7501C19.1459 16.6948 15.7292 20.1115 15.7292 29.7157V42.2157C15.7292 51.8198 19.1459 55.2365 28.7501 55.2365H41.2501C50.8542 55.2365 54.2709 51.8198 54.2709 42.2157V31.799C54.2709 30.9448 54.9792 30.2365 55.8334 30.2365C56.6876 30.2365 57.3959 30.9448 57.3959 31.799V42.2157C57.3959 53.5282 52.5626 58.3615 41.2501 58.3615Z" fill="white"/>
</svg>
