<svg width="70" height="71" viewBox="0 0 70 71" fill="none" xmlns="http://www.w3.org/2000/svg">
<rect y="0.96582" width="70" height="70" rx="10" fill="#0483FD"/>
<path d="M14.1667 29.7157V24.5073C14.1667 19.3198 18.3542 15.1323 23.5417 15.1323H28.7501" stroke="white" stroke-width="3" stroke-linecap="round" stroke-linejoin="round"/>
<path d="M41.25 15.1323H46.4583C51.6458 15.1323 55.8333 19.3198 55.8333 24.5073V29.7157" stroke="white" stroke-width="3" stroke-linecap="round" stroke-linejoin="round"/>
<path d="M55.8333 44.2993V47.4243C55.8333 52.6118 51.6458 56.7993 46.4583 56.7993H43.3333" stroke="white" stroke-width="3" stroke-linecap="round" stroke-linejoin="round"/>
<path d="M28.7501 56.7992H23.5417C18.3542 56.7992 14.1667 52.6117 14.1667 47.4242V42.2158" stroke="white" stroke-width="3" stroke-linecap="round" stroke-linejoin="round"/>
<path d="M45.4166 30.7573V41.174C45.4166 45.3407 43.3333 47.424 39.1666 47.424H30.8333C26.6666 47.424 24.5833 45.3407 24.5833 41.174V30.7573C24.5833 26.5907 26.6666 24.5073 30.8333 24.5073H39.1666C43.3333 24.5073 45.4166 26.5907 45.4166 30.7573Z" stroke="white" stroke-width="3" stroke-linecap="round" stroke-linejoin="round"/>
<path d="M49.5834 35.9658H20.4167" stroke="white" stroke-width="3" stroke-linecap="round" stroke-linejoin="round"/>
</svg>
