<svg width="70" height="71" viewBox="0 0 70 71" fill="none" xmlns="http://www.w3.org/2000/svg">
<rect y="0.96582" width="70" height="70" rx="10" fill="#0483FD"/>
<path d="M31.8542 15.6118L21.4584 19.5076C19.0626 20.4035 17.1042 23.2368 17.1042 25.7993V41.2785C17.1042 43.7368 18.7293 46.966 20.7084 48.4451L29.6667 55.1327C32.6042 57.341 37.4375 57.341 40.375 55.1327L49.3334 48.4451C51.3126 46.966 52.9375 43.7368 52.9375 41.2785V25.7993C52.9375 23.2368 50.9792 20.4035 48.5834 19.5076L38.1876 15.6118C36.4167 14.966 33.5834 14.966 31.8542 15.6118Z" stroke="white" stroke-width="3" stroke-linecap="round" stroke-linejoin="round"/>
<path d="M35.0001 43.2575C39.6025 43.2575 43.3334 39.5265 43.3334 34.9242C43.3334 30.3218 39.6025 26.5908 35.0001 26.5908C30.3977 26.5908 26.6667 30.3218 26.6667 34.9242C26.6667 39.5265 30.3977 43.2575 35.0001 43.2575Z" stroke="white" stroke-width="3" stroke-miterlimit="10" stroke-linecap="round" stroke-linejoin="round"/>
<path d="M35.5209 32.3198V34.2573C35.5209 34.9865 35.1459 35.674 34.5001 36.049L32.9167 37.0073" stroke="white" stroke-width="3" stroke-miterlimit="10" stroke-linecap="round" stroke-linejoin="round"/>
</svg>
